<?xml version="1.0" standalone="no"?>
<!DOCTYPE svg PUBLIC "-//W3C//DTD SVG 1.1//EN" "http://www.w3.org/Graphics/SVG/1.1/DTD/svg11.dtd" >
<svg>
<metadata>
Created by FontForge 20120731 at Wed Aug 24 06:06:03 2016
 By www
Font software copyright 1991 Adobe Systems Incorporated. Font software for additional glyphs copyright 2008 The Monotype Corporation. Typeface designs copyright The Monotype Corporation. All rights reserved.
</metadata>
<defs>
<font id="PlacardW01-Condensed" horiz-adv-x="354" >
  <font-face 
    font-family="PlacardW01-Condensed"
    font-weight="400"
    font-stretch="normal"
    units-per-em="1000"
    panose-1="2 11 7 6 4 4 2 5 2 4"
    ascent="868"
    descent="-132"
    x-height="650"
    cap-height="821"
    bbox="-17 -176 1006 1022"
    underline-thickness="50"
    underline-position="-100"
    unicode-range="U+0020-2122"
  />
<missing-glyph horiz-adv-x="0" 
 />
    <glyph glyph-name=".notdef" horiz-adv-x="0" 
 />
    <glyph glyph-name="glyph1" horiz-adv-x="0" 
 />
    <glyph glyph-name="glyph2" horiz-adv-x="0" 
 />
    <glyph glyph-name="space" unicode=" " horiz-adv-x="177" 
 />
    <glyph glyph-name="exclam" unicode="!" horiz-adv-x="198" 
d="M97 125q30 0 48 -19.5t18 -44.5q0 -26 -19 -45t-45 -19q-27 0 -45.5 19t-18.5 45q0 29 19.5 46.5t42.5 17.5zM86 221q-12 89 -21 157t-15 125t-9 109t-3 111q0 15 2 33.5t8 34.5t18 27t32 11q22 0 34 -12t18 -29.5t7 -37.5t1 -35q0 -55 -3 -106t-8.5 -108t-14.5 -124.5
t-21 -155.5h-25z" />
    <glyph glyph-name="quotedbl" unicode="&#x22;" horiz-adv-x="355" 
d="M287 821v-118l-20 -136h-46l-20 136v118h86zM154 821v-118l-20 -136h-46l-20 136v118h86z" />
    <glyph glyph-name="numbersign" unicode="#" horiz-adv-x="668" 
d="M208 569l40 191h69l-40 -191h181l40 191h69l-40 -191h98v-70h-112l-37 -172h149v-70h-163l-40 -191h-69l40 191h-182l-40 -191h-69l40 191h-98v70h113l36 172h-149v70h164zM262 499l-36 -172h181l37 172h-182z" />
    <glyph glyph-name="dollar" unicode="$" 
d="M196 828v-42q25 -3 49 -12.5t43 -28.5t30 -48.5t11 -74.5v-38h-90v24q0 23 -3.5 37.5t-9 23.5t-13.5 14t-17 8v-220q27 -31 51 -62t42 -66t29 -76t11 -91q0 -26 -5 -53.5t-19.5 -51.5t-40.5 -43t-68 -28v-67h-37v67q-28 7 -52 17t-41.5 29.5t-27.5 50t-10 77.5v35h90v-23
q0 -24 3.5 -39.5t9 -24.5t13 -14t15.5 -8v243q-38 49 -63.5 83.5t-41 63.5t-22.5 57t-7 64q0 58 16.5 92t39 52t45 23.5t33.5 7.5v42h37zM159 692q-7 -3 -14.5 -6.5t-14 -11t-11 -19t-4.5 -29.5q0 -33 15 -60.5t27 -47.5h2v174zM196 101q17 8 30 24t13 51q0 22 -4.5 40
t-11 33t-13.5 26.5t-12 20.5h-2v-195z" />
    <glyph glyph-name="percent" unicode="%" horiz-adv-x="540" 
d="M439 241q0 15 -0.5 28.5t-3.5 24t-9 16.5t-17 6t-17 -7t-8.5 -17.5t-3 -22.5t-0.5 -21v-127q0 -25 5 -44.5t25 -19.5t24.5 18t4.5 38v128zM314 257q0 19 3.5 40.5t13.5 39.5t28.5 29.5t48.5 11.5q27 0 46 -10t30 -26.5t16 -38.5t5 -46v-154q0 -17 -4.5 -36t-15 -35
t-29 -26.5t-45.5 -10.5q-29 0 -47.5 10.5t-29.5 28t-15.5 40.5t-4.5 49v134zM35 707q0 19 3.5 40.5t13.5 39.5t28.5 29.5t48.5 11.5q27 0 46 -10t30 -26.5t16 -38.5t5 -46v-154q0 -17 -4.5 -36t-15 -35t-29 -26.5t-45.5 -10.5q-29 0 -47.5 10.5t-29.5 28t-15.5 40.5t-4.5 49
v134zM160 698q0 29 -4 48.5t-26 19.5q-11 0 -17 -7t-8.5 -17.5t-3 -22.5t-0.5 -21v-131q0 -25 5 -42.5t25 -17.5t24.5 18t4.5 38v135zM476 828l-344 -833h-75l344 833h75z" />
    <glyph glyph-name="ampersand" unicode="&#x26;" horiz-adv-x="427" 
d="M298 296h2q11 40 15 73.5t5 56.5h85q-2 -21 -5 -50t-10 -63.5t-18.5 -72.5t-29.5 -77l54 -163h-113l-17 46q-19 -24 -46.5 -38t-59.5 -14q-29 0 -53.5 12t-36.5 25q-16 17 -26 40.5t-15.5 49t-7.5 52t-2 49.5q0 52 6.5 88.5t19.5 64.5t31 52t42 52q-1 4 -4 15t-7 23
t-7.5 23t-4.5 15q-11 36 -15 62t-4 45q0 26 6.5 55.5t22.5 54t42 41t65 16.5t64.5 -15t41 -38.5t21.5 -52.5t6 -57q0 -40 -6.5 -69.5t-19 -54t-30.5 -46.5t-41 -46zM211 568q14 16 21.5 33t11 32.5t4 27t0.5 15.5q0 3 -0.5 13t-4 20.5t-11 18.5t-20.5 8q-14 0 -23.5 -12
t-9.5 -34q0 -32 10.5 -63.5t21.5 -58.5zM162 357q-8 -11 -14 -23t-10.5 -27.5t-7 -35.5t-2.5 -47q0 -24 2 -47.5t7.5 -42t15.5 -30t27 -11.5q10 0 26.5 9.5t25.5 41.5z" />
    <glyph glyph-name="quotesingle" unicode="'" horiz-adv-x="191" 
d="M138 821v-118l-20 -136h-46l-20 136v118h86z" />
    <glyph glyph-name="parenleft" unicode="(" horiz-adv-x="271" 
d="M249 830q-25 -55 -44.5 -105.5t-33 -104t-21 -114t-7.5 -135.5t6.5 -134t20 -111.5t33 -104t46.5 -113.5h-53q-36 56 -66.5 107.5t-52 105.5t-34 114t-12.5 133q0 77 13.5 141t36.5 119t52.5 104.5t62.5 97.5h53z" />
    <glyph glyph-name="parenright" unicode=")" horiz-adv-x="271" 
d="M22 -92q25 55 44.5 105.5t33 104t21 114t7.5 135.5t-6.5 133.5t-20 111t-33 104.5t-46.5 114h53q36 -56 66.5 -107.5t52 -105.5t34 -114t12.5 -133q0 -77 -13.5 -141t-36.5 -119t-52.5 -104.5t-62.5 -97.5h-53z" />
    <glyph glyph-name="asterisk" unicode="*" horiz-adv-x="385" 
d="M164 715q-8 25 -10 39t-2 22q0 53 41 53q14 0 22 -6.5t11.5 -15.5t4 -18t0.5 -13q0 -17 -4 -32t-9 -30q-1 -3 -4 -11t-6 -16.5t-5.5 -15.5t-3.5 -9l2 -2q24 19 42 32.5t32.5 22.5t26.5 13t26 4t26 -9.5t12 -29.5q0 -19 -13.5 -29t-30.5 -14.5t-33 -5.5t-22 -1
q-1 0 -10 0.5t-20 1t-20.5 1t-12.5 0.5l-2 -2q48 -29 79.5 -55t31.5 -53q0 -16 -10 -28t-27 -12q-15 0 -26 10.5t-21 29t-18.5 43.5t-17.5 54h-2q-11 -41 -20.5 -67t-19.5 -42t-19.5 -22t-20.5 -6q-17 0 -29 12t-12 26q0 17 13 33t33 32q4 3 13 9.5t19 14t19 13.5l12 8l-2 2
q-11 -2 -25.5 -2.5t-28.5 -0.5q-13 0 -30.5 1.5t-34 6.5t-28 14.5t-11.5 26.5q0 14 9.5 27t28.5 13q12 0 21 -2t22 -9.5t31.5 -22t50.5 -38.5l2 2z" />
    <glyph glyph-name="plus" unicode="+" horiz-adv-x="667" 
d="M295 451v229h77v-229h229v-77h-229v-229h-77v229h-229v77h229z" />
    <glyph glyph-name="comma" unicode="," horiz-adv-x="198" 
d="M40 -73q42 21 43 70q-6 3 -14.5 6.5t-16 10.5t-12.5 17t-5 25q0 10 3.5 21.5t11 21t19.5 16t28 6.5q20 0 33 -8.5t20.5 -21t10 -26.5t2.5 -24q0 -15 -4.5 -34t-17.5 -37.5t-35 -35t-56 -26.5z" />
    <glyph glyph-name="hyphen" unicode="-" horiz-adv-x="271" 
d="M244 370v-91h-218v91h218z" />
    <glyph glyph-name="period" unicode="." horiz-adv-x="198" 
d="M99 122q26 0 45 -19t19 -45t-19 -45t-45 -19t-45 19t-19 45t19 45t45 19z" />
    <glyph glyph-name="slash" unicode="/" horiz-adv-x="271" 
d="M77 -10h-77l194 831h77z" />
    <glyph glyph-name="zero" unicode="0" 
d="M323 148q0 -28 -6.5 -55.5t-23 -49t-44.5 -35t-70 -13.5q-75 0 -111.5 42t-36.5 117v518q0 75 37.5 115.5t107.5 40.5q77 0 112 -43.5t35 -118.5v-518zM217 689q0 17 -10 31.5t-29 14.5q-11 0 -19 -4.5t-13 -11.5t-7 -15t-2 -15v-555q0 -14 8.5 -30t31.5 -16q24 0 32 17
t8 32v552z" />
    <glyph glyph-name="one" unicode="1" 
d="M229 828h12v-828h-106v694l-77 -29v94z" />
    <glyph glyph-name="two" unicode="2" 
d="M27 640q0 19 3 50.5t17.5 62t43 53t79.5 22.5q38 0 64.5 -12.5t43.5 -31.5t26 -43t13.5 -47t5 -42.5t0.5 -29.5q0 -32 -5.5 -75.5t-26.5 -102.5l-122 -344h148v-100h-295l166 472q9 24 14.5 44.5t8.5 40.5t4.5 40.5t1.5 43.5q0 44 -7 67.5t-36 23.5q-24 0 -32.5 -21
t-8.5 -77v-63h-106v69z" />
    <glyph glyph-name="three" unicode="3" 
d="M25 649q0 26 5 57t21 58t45 45.5t76 18.5q37 0 65 -12.5t46.5 -34t27.5 -51.5t9 -65v-111q0 -28 -6 -47t-15 -32t-19 -21t-17 -13q11 -5 21 -11.5t18 -17.5t13 -27t5 -40v-169q0 -83 -34 -132t-113 -49q-48 0 -77 16.5t-45 43t-21 59t-5 65.5v93h106v-123q0 -6 1 -16
t5 -19t12.5 -16t23.5 -7q12 0 20 6t12.5 14.5t6.5 18t2 17.5v145q0 36 -5 56t-17 29.5t-33.5 12t-54.5 3.5v88q32 1 53 6t34 16t18 29t5 47v81q0 27 -8.5 49.5t-35.5 22.5q-12 0 -19.5 -6t-12 -15t-6 -20.5t-1.5 -21.5v-95h-106v75z" />
    <glyph glyph-name="four" unicode="4" 
d="M291 828v-549h40v-98h-40v-181h-106v181h-173v111l172 536h107zM185 598h-3l-98 -319h101v319z" />
    <glyph glyph-name="five" unicode="5" 
d="M312 821v-96h-181v-184q11 12 26 22t48 10q34 0 56 -15t35 -37.5t18 -50t5 -52.5v-270q0 -22 -6 -48.5t-22 -50t-44.5 -39t-74.5 -15.5q-77 0 -110 44.5t-33 124.5v105h106v-133q0 -21 9 -33t29 -12q23 0 31.5 14t8.5 31v287q0 22 -13.5 33.5t-30.5 11.5q-13 0 -27 -11
t-16 -44h-93v408h279z" />
    <glyph glyph-name="six" unicode="6" 
d="M320 154q0 -33 -8 -61.5t-25 -50.5t-45 -34.5t-67 -12.5q-40 0 -68 12.5t-45.5 35t-25.5 53t-8 66.5v495q0 82 38.5 126.5t106.5 44.5q39 0 66.5 -12.5t45.5 -33.5t26.5 -48t8.5 -56v-51h-106v47q0 28 -9 43t-32 15t-31 -15t-8 -37v-177q12 13 31.5 25.5t51.5 12.5
q54 0 78.5 -34t24.5 -85v-268zM214 388q0 20 -8 35.5t-30 15.5q-25 0 -33.5 -17.5t-8.5 -37.5v-246q0 -20 9.5 -33.5t30.5 -13.5t30.5 13.5t9.5 33.5v250z" />
    <glyph glyph-name="seven" unicode="7" 
d="M305 821v-85l-121 -736h-107l119 720h-154v101h263z" />
    <glyph glyph-name="eight" unicode="8" 
d="M318 534q0 -26 -8 -42.5t-19 -26.5t-22.5 -15.5t-19.5 -8.5q12 -5 24.5 -11.5t23.5 -18.5t18 -31t7 -48v-198q0 -25 -7 -50t-23.5 -44.5t-44.5 -32t-69 -12.5q-39 0 -67 11t-46 30.5t-26.5 45t-8.5 55.5v195q0 30 7 49t17.5 31t22.5 18.5t22 10.5q-23 10 -36.5 20.5
t-21 28t-9.5 45t-2 72.5q0 13 0.5 34.5t2.5 45.5t7 46t14 36q12 19 28 30.5t32.5 18t32.5 8.5t29 2q38 0 65 -11.5t44 -30.5t25 -43.5t8 -49.5v-159zM213 692q0 16 -9.5 30t-27.5 14t-27 -15t-9 -29v-158q0 -17 6.5 -32.5t27.5 -15.5q22 0 30.5 16t8.5 32v158zM216 339
q0 20 -11 35.5t-32 15.5q-11 0 -18.5 -5.5t-11.5 -13.5t-5.5 -16.5t-1.5 -15.5v-202q0 -18 9 -34t32 -16q24 0 31.5 17.5t7.5 32.5v202z" />
    <glyph glyph-name="nine" unicode="9" 
d="M322 175q0 -7 -0.5 -23t-4.5 -36t-12.5 -41.5t-25 -39t-41.5 -29t-61 -11.5q-42 0 -70 13.5t-45.5 35t-25 48t-7.5 53.5v54h106q0 -3 -0.5 -10.5t-0.5 -15.5v-15v-10q0 -10 2 -20.5t7 -18.5t13 -13.5t22 -5.5q21 0 29.5 16.5t8.5 30.5v183q-4 -4 -12 -10.5t-19 -12.5
t-25.5 -10.5t-32.5 -4.5q-36 0 -56.5 18t-31 49.5t-13.5 74.5t-3 94q0 22 1 58t4 73.5t9 70t17 49.5q18 27 47.5 43t71.5 16q46 0 75 -16t45.5 -41.5t22.5 -57.5t6 -63v-475zM216 686q0 20 -10.5 32.5t-29.5 12.5q-12 0 -20 -6t-12.5 -14.5t-6.5 -17t-2 -13.5v-254
q0 -5 2 -12t6 -14t11 -11.5t18 -4.5q17 0 30.5 11t13.5 43v248z" />
    <glyph glyph-name="colon" unicode=":" horiz-adv-x="198" 
d="M99 443q26 0 45 -19t19 -45t-19 -45t-45 -19t-45 19t-19 45t19 45t45 19zM99 122q26 0 45 -19t19 -45t-19 -45t-45 -19t-45 19t-19 45t19 45t45 19z" />
    <glyph glyph-name="semicolon" unicode=";" horiz-adv-x="198" 
d="M40 -73q42 21 43 70q-6 3 -14.5 6.5t-16 10.5t-12.5 17t-5 25q0 10 3.5 21.5t11 21t19.5 16t28 6.5q20 0 33 -8.5t20.5 -21t10 -26.5t2.5 -24q0 -15 -4.5 -34t-17.5 -37.5t-35 -35t-56 -26.5zM99 443q26 0 45 -19t19 -45t-19 -45t-45 -19t-45 19t-19 45t19 45t45 19z" />
    <glyph glyph-name="less" unicode="&#x3c;" horiz-adv-x="667" 
d="M67 377v70l534 224v-83l-431 -176l431 -176v-83z" />
    <glyph glyph-name="equal" unicode="=" horiz-adv-x="667" 
d="M601 566v-77h-535v77h535zM601 336v-77h-535v77h535z" />
    <glyph glyph-name="greater" unicode="&#x3e;" horiz-adv-x="667" 
d="M600 447v-70l-534 -224v83l431 176l-431 176v83z" />
    <glyph glyph-name="question" unicode="?" horiz-adv-x="271" 
d="M121 217h-24q-8 32 -16 71.5t-8 81.5q0 15 1.5 34t6.5 43t14.5 55t24.5 70q3 9 7.5 21t8 24t6 23t2.5 20q0 32 -16.5 49t-37.5 17q-19 0 -39.5 -7.5t-31.5 -12.5v110q17 5 36 9t50 4q47 0 76 -15.5t44.5 -38t20.5 -48t5 -44.5q0 -20 -3.5 -39.5t-11.5 -43t-21 -53.5
t-32 -72q-13 -30 -24 -63.5t-19.5 -65t-13.5 -58.5t-5 -43v-28zM110 -3q-30 0 -47.5 19.5t-17.5 44.5q0 26 18.5 45t45.5 19q26 0 45 -19t19 -45q0 -29 -20 -46.5t-43 -17.5z" />
    <glyph glyph-name="at" unicode="@" horiz-adv-x="822" 
d="M589 659l-53 -316q0 -2 -2 -13t-4 -25t-3.5 -28t-1.5 -22q0 -10 3 -15.5t7 -8t8.5 -3t6.5 -0.5q24 0 51 17t50.5 49t39 77.5t15.5 101.5q0 72 -24 126t-63 90t-89 54t-103 18q-63 0 -122 -24t-104.5 -71t-73 -115.5t-27.5 -158.5q0 -91 29 -156t75.5 -106.5t104 -61
t114.5 -19.5q71 0 136.5 24.5t117.5 73.5h86q-9 -12 -18.5 -24.5t-22.5 -25t-31 -26t-43 -27.5q-60 -33 -116.5 -46t-110.5 -13q-81 0 -152 28.5t-123 82t-82 129.5t-30 172q0 99 30.5 178.5t83.5 136t124.5 86.5t152.5 30q84 0 148.5 -27t108.5 -73.5t67 -109.5t23 -136
q0 -84 -26 -147t-64.5 -104.5t-82.5 -62.5t-79 -21q-6 0 -16.5 1t-22 7t-21 19.5t-12.5 38.5q-33 -36 -62.5 -51t-59.5 -15q-25 0 -50.5 12t-46.5 37.5t-34 65t-13 93.5q0 57 13 114t38.5 102.5t62.5 73.5t84 28q27 0 46.5 -8.5t33.5 -21t23.5 -27.5t16.5 -28h2l11 71h76z
M264 347q0 -45 9.5 -71t22.5 -39t26 -16.5t21 -3.5q27 0 47 16.5t34 43t23.5 58.5t15 63t7.5 57t2 41q0 13 -2.5 31.5t-10.5 35.5t-23 28.5t-40 11.5q-38 0 -63.5 -28t-40.5 -68t-21.5 -84t-6.5 -76z" />
    <glyph glyph-name="A" unicode="A" horiz-adv-x="385" 
d="M245 829l125 -829h-117l-11 108h-99l-12 -108h-119l129 829h104zM193 555h-2l-38 -347h77z" />
    <glyph glyph-name="B" unicode="B" horiz-adv-x="385" 
d="M181 821q82 0 126.5 -40.5t44.5 -140.5v-82q0 -35 -7 -56t-18.5 -34t-26 -19t-29.5 -10v-2q11 -3 25.5 -9.5t28 -19t22.5 -33.5t9 -53v-169q0 -43 -13 -72.5t-34 -47.5t-46.5 -25.5t-50.5 -7.5h-180v821h149zM152 719v-231h36q20 0 34 14t14 41v116q0 10 -3 20.5
t-9.5 19.5t-17 14.5t-26.5 5.5h-28zM152 388v-286h33q28 0 39.5 17t11.5 43v166q0 23 -13 41.5t-38 18.5h-33z" />
    <glyph glyph-name="C" unicode="C" horiz-adv-x="385" 
d="M354 162q0 -44 -14 -76t-37 -52.5t-52.5 -30.5t-60.5 -10q-42 0 -72.5 15t-51 40t-30.5 57.5t-10 68.5v460q0 92 45 143t122 51q37 0 67 -12.5t51 -34t32 -51.5t11 -66v-87h-120v63q0 40 -5 63t-34 23q-16 0 -25.5 -6.5t-15 -17t-7 -23t-1.5 -24.5v-501q0 -21 10.5 -40
t33.5 -19q20 0 32 14.5t12 34.5v122h120v-104z" />
    <glyph glyph-name="D" unicode="D" horiz-adv-x="385" 
d="M188 821q79 0 122 -53.5t43 -148.5v-445q0 -33 -7.5 -64t-25.5 -55.5t-48 -39.5t-74 -15h-169v821h159zM149 719v-617h33q22 0 36.5 12.5t14.5 35.5v515q0 25 -12.5 39.5t-38.5 14.5h-33z" />
    <glyph glyph-name="E" unicode="E" horiz-adv-x="313" 
d="M284 821v-102h-138v-248h131v-102h-131v-267h143v-102h-263v821h258z" />
    <glyph glyph-name="F" unicode="F" horiz-adv-x="271" 
d="M243 821v-102h-97v-248h90v-102h-90v-369h-120v821h217z" />
    <glyph glyph-name="G" unicode="G" horiz-adv-x="385" 
d="M354 164q0 -80 -43 -125.5t-121 -45.5q-44 0 -74 14.5t-49.5 39.5t-28 58.5t-8.5 70.5v455q0 11 1.5 30t6.5 41t15.5 44t29 40.5t46 30t67.5 11.5q44 0 74.5 -13.5t49 -35.5t26.5 -49.5t8 -55.5v-99h-120v97q0 18 -7 36t-32 18q-13 0 -21.5 -5t-14 -12.5t-7.5 -15.5
t-2 -14v-540q0 -20 11.5 -32t29.5 -12q20 0 31.5 13.5t11.5 30.5v194h-42v102h162v-271z" />
    <glyph glyph-name="H" unicode="H" horiz-adv-x="385" 
d="M151 821v-346h84v346h120v-821h-120v369h-84v-369h-120v821h120z" />
    <glyph glyph-name="I" unicode="I" horiz-adv-x="198" 
d="M159 821v-821h-120v821h120z" />
    <glyph glyph-name="J" unicode="J" horiz-adv-x="198" 
d="M162 821v-770q0 -54 -17 -83t-40.5 -42.5t-47.5 -15.5t-38 -2v118q16 5 19.5 16t3.5 16v763h120z" />
    <glyph glyph-name="K" unicode="K" horiz-adv-x="385" 
d="M146 821v-385h2l97 385h114l-114 -379l123 -442h-123l-97 428h-2v-428h-120v821h120z" />
    <glyph glyph-name="L" unicode="L" horiz-adv-x="271" 
d="M151 821v-719h100v-102h-220v821h120z" />
    <glyph glyph-name="M" unicode="M" horiz-adv-x="469" 
d="M129 821l101 -428h2l108 428h76l36 -821h-112l-7 462h-2l-84 -371h-27l-83 364h-2l-6 -455h-112l38 821h74z" />
    <glyph glyph-name="N" unicode="N" horiz-adv-x="385" 
d="M105 821q16 -45 30.5 -88t30.5 -93t35 -113t44 -149h2v443h111v-821h-80q-21 58 -37.5 108t-32.5 100t-32.5 105t-35.5 123h-2v-436h-111v821h78z" />
    <glyph glyph-name="O" unicode="O" horiz-adv-x="385" 
d="M354 183q0 -34 -8 -68t-27 -61t-50 -44t-77 -17q-47 0 -78.5 18.5t-50 49t-26 69t-7.5 78.5v413q0 27 6 62.5t23.5 68t49.5 54.5t85 22q40 0 70.5 -14.5t50 -40t29.5 -61t10 -77.5v-452zM234 675q0 23 -10.5 37t-32.5 14q-14 0 -22 -7t-12 -17t-5.5 -21.5t-1.5 -20.5
v-489q0 -32 7.5 -54t35.5 -22q23 0 32 18.5t9 44.5v517z" />
    <glyph glyph-name="P" unicode="P" horiz-adv-x="385" 
d="M178 821q46 0 78.5 -14t53.5 -38.5t31 -58t10 -72.5v-227q0 -29 -7.5 -57.5t-25 -51.5t-47 -37.5t-73.5 -14.5h-46v-250h-120v821h146zM152 719v-367h27q31 0 41.5 20t10.5 46v239q0 33 -12.5 47.5t-43.5 14.5h-23z" />
    <glyph glyph-name="Q" unicode="Q" horiz-adv-x="385" 
d="M376 -3l-52 -89q-27 1 -48.5 5.5t-39.5 15t-34.5 28t-33.5 43.5q-37 7 -62 25t-40 44t-21.5 58.5t-6.5 68.5v441q0 28 7 62t25 62.5t49.5 48t79.5 19.5q45 0 76 -16.5t50 -44t27.5 -64t8.5 -76.5v-426q0 -49 -8.5 -81t-21 -52.5t-25.5 -32t-22 -17.5q14 -11 25 -16.5
t23 -5.5q19 0 33 10zM241 674q0 21 -10.5 37t-31.5 16q-13 0 -21 -6t-12.5 -15.5t-6 -21t-1.5 -21.5v-487q0 -11 1 -24t5 -24.5t12 -19.5t23 -8t23.5 9t12.5 20.5t5 22.5t1 15v507z" />
    <glyph glyph-name="R" unicode="R" horiz-adv-x="385" 
d="M194 821q81 0 119 -48.5t38 -126.5v-74q0 -42 -9.5 -68t-23 -40t-28.5 -20t-27 -9v-2q14 -5 29.5 -12t28.5 -21t21.5 -38t8.5 -63v-299h-120v322q0 29 -18 45.5t-43 16.5h-21v-384h-120v821h165zM149 719v-233q18 0 33 1.5t26 6t17 13t6 23.5v145q0 25 -17.5 34.5
t-36.5 9.5h-28z" />
    <glyph glyph-name="S" unicode="S" 
d="M140 136q0 -12 6.5 -26.5t28.5 -14.5q14 0 22 6.5t11.5 16.5t4.5 22t1 24q0 41 -1 67.5t-7.5 47.5t-20.5 42t-40 51q-28 32 -50.5 60.5t-38.5 58.5t-25 65.5t-9 82.5q0 21 4 53t19 62t45.5 52t83.5 22q78 0 116.5 -44t38.5 -114v-89h-119v101q0 19 -8.5 31.5t-26.5 12.5
q-12 0 -19.5 -6t-11.5 -15.5t-5 -21.5t-1 -23q0 -37 6 -64.5t19.5 -52.5t35 -51t52.5 -61q18 -21 33 -42t26.5 -48t17.5 -61t6 -80v-26q0 -22 -5.5 -53t-23 -59.5t-49 -48.5t-83.5 -20q-80 0 -116 46t-36 122v82h119v-107z" />
    <glyph glyph-name="T" unicode="T" horiz-adv-x="313" 
d="M297 821v-102h-82v-719h-120v719h-80v102h282z" />
    <glyph glyph-name="U" unicode="U" horiz-adv-x="385" 
d="M151 821v-673q0 -22 8 -36.5t31 -14.5q28 0 35.5 19.5t7.5 44.5v660h120v-641q0 -27 -7 -60t-25 -61t-48.5 -47t-77.5 -19q-44 0 -75 15.5t-50.5 40t-28.5 54.5t-9 59v659h119z" />
    <glyph glyph-name="V" unicode="V" horiz-adv-x="385" 
d="M131 821l59 -504h2l60 504h118l-128 -828h-104l-123 828h116z" />
    <glyph glyph-name="W" unicode="W" horiz-adv-x="542" 
d="M132 821l42 -548h2l53 548h83l54 -548h2l44 548h114l-110 -828h-90l-54 549h-2l-53 -549h-90l-112 828h117z" />
    <glyph glyph-name="X" unicode="X" 
d="M138 821l38 -297h2l38 297h117l-84 -399l87 -422h-120l-38 317h-2l-38 -317h-120l86 418l-83 403h117z" />
    <glyph glyph-name="Y" unicode="Y" 
d="M136 821l41 -324h2l40 324h117l-99 -425v-396h-120v392l-99 429h118z" />
    <glyph glyph-name="Z" unicode="Z" horiz-adv-x="271" 
d="M256 821l-111 -719h111v-102h-242l112 719h-108v102h238z" />
    <glyph glyph-name="bracketleft" unicode="[" horiz-adv-x="271" 
d="M247 821v-76h-104v-749h104v-78h-212v903h212z" />
    <glyph glyph-name="backslash" unicode="\" horiz-adv-x="271" 
d="M77 821l194 -831h-77l-194 831h77z" />
    <glyph glyph-name="bracketright" unicode="]" horiz-adv-x="271" 
d="M24 -82v78h104v747h-104v78h212v-903h-212z" />
    <glyph glyph-name="asciicircum" unicode="^" horiz-adv-x="469" 
d="M27 430l172 391h71l173 -391h-88l-121 292l-117 -292h-90z" />
    <glyph glyph-name="underscore" unicode="_" horiz-adv-x="500" 
d="M506 -75v-50h-512v50h512z" />
    <glyph glyph-name="grave" unicode="`" horiz-adv-x="333" 
d="M207 702h-48l-81 157h88z" />
    <glyph glyph-name="a" unicode="a" 
d="M30 484q0 22 4 51.5t15.5 56.5t32 45.5t53.5 18.5q17 0 29.5 -4.5t21 -11.5t14 -14.5t9.5 -14.5h2v39h106v-650h-106v42h-2q-14 -22 -34 -34.5t-43 -12.5q-45 0 -73.5 38t-28.5 111v340zM211 534q-6 8 -15 17t-23 9q-12 0 -19.5 -6.5t-11.5 -16.5t-5 -20.5t-1 -18.5v-363
q0 -16 7 -32t27 -16q7 0 14.5 4.5t13.5 11.5t9.5 14.5t3.5 12.5v404z" />
    <glyph glyph-name="b" unicode="b" 
d="M139 821v-219h2q3 7 9 16.5t15.5 17.5t23 14t31.5 6q33 0 53 -19t30 -46.5t13 -58t3 -52.5v-304q0 -14 -3 -44t-13.5 -60.5t-31.5 -53.5t-58 -23q-24 0 -39.5 12t-32.5 34h-2v-41h-106v821h106zM213 509q0 6 -1 15t-4.5 17t-9.5 13.5t-16 5.5q-18 0 -30.5 -16t-12.5 -28
v-394q0 -10 10.5 -21.5t28.5 -11.5q12 0 19 6.5t10.5 15.5t4.5 18t1 13v367z" />
    <glyph glyph-name="c" unicode="c" 
d="M319 171q0 -24 -5.5 -54.5t-20.5 -57.5t-41.5 -45.5t-68.5 -18.5q-69 0 -106 44t-37 120v325q0 26 5.5 56.5t21 56t42.5 42.5t70 17q37 0 63.5 -12.5t43.5 -34t25 -51t8 -63.5v-90h-106v102q0 8 -1 17t-4.5 17t-9.5 13.5t-16 5.5q-18 0 -27 -14t-9 -28v-376
q0 -16 7.5 -33.5t24.5 -17.5q10 0 16.5 5.5t10.5 14t6 18t2 18.5v99h106v-75z" />
    <glyph glyph-name="d" unicode="d" 
d="M320 821v-821h-106v46h-2q-16 -24 -32.5 -38t-45.5 -14q-38 0 -59 20.5t-30.5 47.5t-11 53t-1.5 37v327q0 85 29 131t77 46q30 0 48.5 -14.5t27.5 -25.5v205h106zM214 538q-8 8 -17 15t-21 7t-19 -6.5t-11.5 -16t-6 -20.5t-1.5 -21v-362q0 -19 9.5 -34.5t24.5 -15.5
q14 0 28 12t14 26v416z" />
    <glyph glyph-name="e" unicode="e" 
d="M319 128q0 -21 -7.5 -44t-24 -43t-43 -33t-64.5 -13q-39 0 -66.5 12.5t-45.5 33.5t-26 48t-8 56v361q0 28 8.5 55t26 48t44.5 34t64 13q61 0 101.5 -37.5t40.5 -107.5v-215h-179v-167q0 -23 12.5 -30.5t23.5 -7.5q20 0 28.5 14t8.5 37v62h106v-76zM213 384v134
q0 19 -9.5 30.5t-28.5 11.5t-27 -15t-8 -27v-134h73z" />
    <glyph glyph-name="f" unicode="f" horiz-adv-x="198" 
d="M174 730q-26 -4 -35 -19.5t-9 -32.5v-28h40v-93h-25v-557h-106v557h-23v93h23v19q0 55 13 86t33 46.5t43.5 20t45.5 5.5v-97z" />
    <glyph glyph-name="g" unicode="g" 
d="M31 477q0 36 6 68.5t19 57t33 39t48 14.5q26 0 41 -11t34 -32v37h106v-559q0 -56 -13.5 -91.5t-36.5 -55.5t-54 -28t-67 -8q-41 0 -65.5 8.5t-50.5 25.5l35 75q17 -9 36 -17t44 -8q34 0 50 17.5t16 42.5v49h-2q-5 -8 -11.5 -17.5t-16.5 -18t-23 -14t-30 -5.5
q-32 0 -51 16.5t-29.5 41.5t-14 52.5t-3.5 50.5v270zM212 530q0 8 -12 19t-27 11q-10 0 -17 -5.5t-11 -14t-6 -18t-2 -17.5v-322q0 -22 10 -34.5t25 -12.5t27.5 15.5t12.5 31.5v347z" />
    <glyph glyph-name="h" unicode="h" 
d="M139 821v-198q8 9 25 21t44 12q28 0 48.5 -12.5t34 -33.5t20 -48t6.5 -55v-507h-106v507q0 23 -11 38.5t-28 15.5q-15 0 -24 -10t-9 -16v-535h-106v821h106z" />
    <glyph glyph-name="i" unicode="i" horiz-adv-x="198" 
d="M152 650v-650h-106v650h106zM100 689q-27 0 -43.5 18t-16.5 41q0 25 17 42t42 17q24 0 41.5 -17t17.5 -42q0 -26 -18 -42.5t-40 -16.5z" />
    <glyph glyph-name="j" unicode="j" horiz-adv-x="198" 
d="M151 650v-625q0 -42 -15.5 -65.5t-36.5 -35t-42 -14t-33 -2.5l-7 95q12 2 19.5 8t7.5 28v611h107zM94 690q-27 0 -43.5 18t-16.5 41q0 25 17 42t42 17q24 0 41.5 -17t17.5 -42q0 -26 -18 -42.5t-40 -16.5z" />
    <glyph glyph-name="k" unicode="k" 
d="M132 821v-460h2l91 289h98l-98 -278l98 -372h-98l-91 346h-2v-346h-106v821h106z" />
    <glyph glyph-name="l" unicode="l" horiz-adv-x="198" 
d="M152 821v-821h-106v821h106z" />
    <glyph glyph-name="m" unicode="m" horiz-adv-x="542" 
d="M513 0h-106v487q0 13 -2 26t-7 23.5t-14 17t-22 6.5q-17 0 -27 -9.5t-10 -11.5q-1 -3 -1 -24v-515h-106v497q0 7 -1 18t-5.5 21.5t-12.5 18t-21 7.5q-14 0 -23 -6t-20 -16v-540h-106v650h106v-31q16 14 34 25.5t47 11.5q4 0 14 -1t23 -6.5t27 -18t26 -34.5q11 19 24.5 31
t27 18.5t26 8.5t20.5 2q35 0 56.5 -17t33 -42t15.5 -54t4 -52v-491z" />
    <glyph glyph-name="n" unicode="n" 
d="M320 0h-106v511q0 7 -2.5 15.5t-7 16t-12 12.5t-16.5 5q-14 0 -25 -9t-11 -20v-531h-106v650h106v-32h2q16 23 36 30.5t34 7.5q44 0 76 -38t32 -117v-501z" />
    <glyph glyph-name="o" unicode="o" 
d="M35 501q0 19 6.5 46t22.5 51t43 41t69 17t69.5 -16.5t44 -41.5t23 -55t6.5 -57v-318q0 -29 -6.5 -59.5t-23 -55.5t-43.5 -41.5t-67 -16.5q-41 0 -68.5 16t-44.5 41.5t-24 57t-7 63.5v328zM213 508q0 3 -1 11.5t-5 17.5t-11 16t-19 7q-11 0 -18 -5t-11 -13t-5.5 -17
t-1.5 -17v-362q0 -9 1.5 -18.5t5.5 -17.5t11 -13.5t19 -5.5q11 0 18 6t10.5 14.5t5 17t1.5 14.5v365z" />
    <glyph glyph-name="p" unicode="p" 
d="M140 611h2q8 14 23.5 29.5t46.5 15.5q22 0 41 -11t33.5 -33t23 -56.5t8.5 -80.5v-332q0 -32 -7 -59t-20 -46.5t-32 -31t-43 -11.5q-26 0 -41 12t-35 34v-133h-106v742h106v-39zM212 512q0 5 -2 13t-6 16t-11.5 13.5t-17.5 5.5q-12 0 -22 -8.5t-10 -11.5l-2 -4h-1v-408
q0 -3 2.5 -10.5t7.5 -14.5t12 -12.5t17 -5.5q12 0 18.5 5t10 12t4 14.5t0.5 11.5v384z" />
    <glyph glyph-name="q" unicode="q" 
d="M34 497q0 29 6.5 57.5t20 51t33 36.5t45.5 14q8 0 27.5 -5t47.5 -33v32h106v-742h-106v127q-17 -17 -34 -28.5t-44 -11.5q-25 0 -44 12t-32 31.5t-19.5 43.5t-6.5 49v366zM214 539q0 3 -11.5 12t-26.5 9q-20 0 -28 -17t-8 -32v-379q0 -20 9.5 -33.5t25.5 -13.5q7 0 14 4
t12.5 10t9 11.5t3.5 8.5v420z" />
    <glyph glyph-name="r" unicode="r" horiz-adv-x="229" 
d="M207 535l-9 4.5t-16 2.5q-14 0 -22.5 -8t-13.5 -21.5t-7 -31t-2 -36.5v-445h-106v650h106v-77h2q10 37 14.5 51t8.5 20q9 12 21 12q13 0 17.5 -5t6.5 -10v-106z" />
    <glyph glyph-name="s" unicode="s" horiz-adv-x="313" 
d="M115 168q0 -33 6 -54t28 -21q17 0 26 16t9 52q0 30 -4.5 50.5t-14.5 38t-26 35.5t-40 42q-8 8 -20.5 22.5t-24.5 35.5t-21 48t-9 61q0 24 7 52.5t22.5 53t41.5 40.5t64 16q49 0 75.5 -21t38.5 -49.5t14 -58t2 -46.5v-33h-89v45q0 25 -7 45t-27 20q-12 0 -19 -7t-11 -16.5
t-5 -20t-1 -16.5q0 -18 3 -31.5t10.5 -26t20 -26t30.5 -31.5q15 -15 32 -35t31.5 -46t23.5 -59t9 -75q0 -20 -4.5 -49t-19 -57t-42.5 -47.5t-75 -19.5q-35 0 -59 12t-39 33.5t-21.5 51.5t-6.5 66v50h92v-40z" />
    <glyph glyph-name="t" unicode="t" horiz-adv-x="198" 
d="M152 775v-125h28v-93h-28v-557h-106v557h-28v93h28v125h106z" />
    <glyph glyph-name="u" unicode="u" 
d="M138 650v-507q0 -5 1 -14t5 -18.5t12 -16.5t22 -7q25 0 31.5 19t6.5 40v504h106v-493q0 -32 -7 -61.5t-23.5 -52t-44.5 -35.5t-70 -13q-40 0 -67.5 13t-45 35.5t-25 52.5t-7.5 64v490h106z" />
    <glyph glyph-name="v" unicode="v" horiz-adv-x="313" 
d="M122 650l34 -418h2l34 418h105l-98 -655h-84l-99 655h106z" />
    <glyph glyph-name="w" unicode="w" horiz-adv-x="510" 
d="M122 650l40 -407h2l49 407h84l53 -410h2l36 410h104l-101 -655h-80l-54 412h-2l-50 -412h-83l-105 655h105z" />
    <glyph glyph-name="x" unicode="x" 
d="M123 650l53 -228h2l52 228h106l-106 -314l106 -336h-106l-52 232h-2l-50 -232h-109l106 336l-106 314h106z" />
    <glyph glyph-name="y" unicode="y" horiz-adv-x="313" 
d="M118 650l37 -419h2l30 419h105l-85 -556q-6 -39 -9.5 -62.5t-7 -38t-7 -23.5t-9.5 -19q-12 -22 -32.5 -32.5t-46.5 -10.5q-19 0 -29.5 3.5t-19.5 8.5v102q8 -6 17 -11.5t18 -5.5q13 0 23.5 18t7.5 40l-99 587h105z" />
    <glyph glyph-name="z" unicode="z" horiz-adv-x="229" 
d="M214 650l-86 -574h86v-76h-200l86 570h-80v80h194z" />
    <glyph glyph-name="braceleft" unicode="{" horiz-adv-x="334" 
d="M145 362q13 -7 26 -15.5t23.5 -26.5t17 -49.5t6.5 -82.5v-79q0 -45 2.5 -71.5t11 -40.5t23.5 -19t39 -7v-77q-27 0 -57 4t-54.5 23.5t-40.5 59.5t-16 112v82q0 55 -5.5 83.5t-16 41t-24.5 14t-31 2.5v92q17 1 31 2.5t24.5 14t16 41t5.5 83.5v82q0 72 16 112t40.5 59.5
t54.5 23.5t57 4v-77q-24 -2 -39 -7t-23.5 -19t-11 -40.5t-2.5 -71.5v-79q0 -51 -6.5 -82.5t-17 -49.5t-23.5 -26.5t-26 -15.5z" />
    <glyph glyph-name="bar" unicode="|" horiz-adv-x="546" 
d="M311 821v-911h-76v911h76z" />
    <glyph glyph-name="braceright" unicode="}" horiz-adv-x="334" 
d="M189 362q-13 7 -26 15.5t-23.5 26.5t-17 49.5t-6.5 82.5v79q0 45 -2.5 71.5t-11 40.5t-23.5 19t-39 7v77q27 0 57 -4t54.5 -23.5t40.5 -59.5t16 -112v-82q0 -55 5.5 -83.5t16 -41t24.5 -14t31 -2.5v-92q-17 -1 -31 -2.5t-24.5 -14t-16 -41t-5.5 -83.5v-82q0 -72 -16 -112
t-40.5 -59.5t-54.5 -23.5t-57 -4v77q24 2 39 7t23.5 19t11 40.5t2.5 71.5v79q0 51 6.5 82.5t17 49.5t23.5 26.5t26 15.5z" />
    <glyph glyph-name="asciitilde" unicode="~" horiz-adv-x="656" 
d="M62 427q28 24 53 36.5t44.5 18.5t32.5 7t18 1q13 0 26.5 -2t29.5 -7.5t37 -14.5t50 -22q23 -11 50 -21.5t49 -10.5q23 0 44.5 7.5t39.5 18t32.5 23t25.5 21.5v-83q-28 -24 -52 -37t-42.5 -19t-31 -7t-16.5 -1q-15 0 -29.5 2t-31.5 7.5t-38.5 15t-51.5 24.5
q-35 17 -56.5 23.5t-38.5 6.5q-23 0 -45 -7.5t-40.5 -18.5t-34 -23t-24.5 -20v82z" />
    <glyph glyph-name="uni00A0" unicode="&#xa0;" horiz-adv-x="177" 
 />
    <glyph glyph-name="exclamdown" unicode="&#xa1;" horiz-adv-x="198" 
d="M101 528q-30 0 -48 19.5t-18 44.5q0 26 19 45t45 19q27 0 45.5 -19t18.5 -45q0 -29 -19.5 -46.5t-42.5 -17.5zM112 432q12 -89 21 -157t15 -125t9 -109.5t3 -110.5q0 -15 -2 -33.5t-8 -34.5t-18 -27t-32 -11q-22 0 -34 12t-18 29.5t-7 37.5t-1 35q0 55 3 106t8.5 108
t14.5 124.5t21 155.5h25z" />
    <glyph glyph-name="cent" unicode="&#xa2;" 
d="M110 -71h-41l23 101q-5 5 -13 14.5t-15.5 24.5t-13 37t-5.5 54v324q0 26 5.5 56.5t20.5 56.5q16 26 43 42.5t70 16.5q15 0 24.5 -1t15.5 -2t9.5 -3t7.5 -3l20 84h41l-25 -106q18 -17 32.5 -48t14.5 -82v-90h-101l-67 -286q2 -11 9 -19t18 -8q10 0 16.5 5.5t10.5 14t6 18
t2 18.5v98h106v-74q0 -35 -8 -67t-24.5 -56t-42 -38.5t-61.5 -14.5q-8 0 -25 1.5t-34 8.5zM211 526q1 8 -3 21t-21 13q-18 0 -27 -14t-9 -28v-242h2z" />
    <glyph glyph-name="sterling" unicode="&#xa3;" 
d="M315 644h-101v21q0 34 -8.5 51.5t-28.5 17.5q-16 0 -26.5 -13.5t-10.5 -57.5q0 -11 1 -37t2 -55t2 -54.5t1 -35.5h80v-93h-75q1 -14 2 -35.5t1 -56.5q0 -20 -1.5 -44.5t-4.5 -50t-8 -48.5t-13 -40q4 0 13.5 -1t20 -2.5t20 -2.5t13.5 -1q20 0 26 15.5t6 29.5v32h98v-49
q0 -27 -6 -52t-19 -44.5t-34 -31.5t-50 -12q-8 0 -28 2.5t-42 6t-42 6t-27 2.5q-17 0 -23.5 -3.5t-17.5 -11.5h-18v87q7 6 13.5 13.5t11.5 22t8.5 38.5t3.5 63v76l-1 14t-2 30.5t-2 31t-1 16.5h-31v93h27q-2 22 -4 60.5t-2 74.5q0 20 2 56t15 71t41.5 60.5t80.5 25.5
q36 0 62.5 -12.5t43 -33.5t24.5 -49t8 -59v-31z" />
    <glyph glyph-name="currency" unicode="&#xa4;" horiz-adv-x="687" 
d="M535 655l51 -51l-62 -62q13 -19 26.5 -48.5t13.5 -81.5q0 -51 -13 -80.5t-26 -47.5l62 -62l-52 -52l-62 62q-20 -13 -48.5 -26.5t-80.5 -13.5t-81.5 13.5t-47.5 26.5l-62 -62l-52 52l62 62q-13 18 -26.5 47t-13.5 81t13.5 81t26.5 49l-62 62l51 51l62 -62q19 12 49 26
t81 14q50 0 79.5 -13.5t49.5 -26.5zM344 563q-33 0 -60.5 -11t-47.5 -30.5t-31.5 -47.5t-11.5 -61t11 -60.5t31.5 -48t48 -31.5t60.5 -11t60.5 11t47.5 31.5t31 48t11 60.5t-11 60.5t-31 47.5t-47.5 31t-60.5 11z" />
    <glyph glyph-name="yen" unicode="&#xa5;" 
d="M336 497v-90h-99v-91h99v-90h-99v-226h-119v226h-100v90h100v76l-4 15h-96v90h75l-75 324h118l41 -324h2l40 324h117l-76 -324h76z" />
    <glyph glyph-name="brokenbar" unicode="&#xa6;" horiz-adv-x="546" 
d="M311 299v-389h-76v389h76zM311 821v-389h-76v389h76z" />
    <glyph glyph-name="section" unicode="&#xa7;" horiz-adv-x="313" 
d="M285 657h-90v31q0 8 -1 17t-4 16.5t-10 12.5t-19 5q-20 0 -25.5 -14.5t-5.5 -26.5q0 -35 18.5 -59.5t53.5 -58.5q17 -17 32.5 -35t27 -39t18.5 -46t7 -55v-133q0 -28 -5 -47t-12 -32t-15 -21.5t-15 -14.5q9 -18 15.5 -31.5t10 -25.5t5.5 -24.5t2 -28.5q0 -60 -31.5 -99.5
t-91.5 -39.5q-62 0 -92 35.5t-30 95.5v39h90v-31q0 -23 6 -38t26 -15q18 0 27 13.5t9 32.5q0 12 -3.5 23t-11.5 23.5t-22.5 28.5t-36.5 39q-24 25 -40.5 45t-26.5 45.5t-14.5 61.5t-4.5 93q0 45 2 74t7.5 48.5t14 32t21.5 25.5q-8 16 -19.5 44.5t-11.5 70.5q0 26 5.5 50.5
t19 43t36 30t56.5 11.5q61 0 94.5 -33t33.5 -117v-22zM195 379q0 21 -2.5 36.5t-9.5 29.5t-18.5 28.5t-30.5 33.5q-5 -5 -8.5 -15.5t-5 -22.5t-2 -24t-0.5 -19v-62q0 -24 3 -42t10 -33t19.5 -29t30.5 -31q5 11 8 26t4.5 30t1.5 27.5v19.5v47z" />
    <glyph glyph-name="dieresis" unicode="&#xa8;" horiz-adv-x="333" 
d="M101 846q22 0 37 -18.5t15 -45.5q0 -28 -15.5 -46.5t-36.5 -18.5q-20 0 -36 17.5t-16 47.5q0 32 17.5 48t34.5 16zM232 846q22 0 37 -18.5t15 -45.5q0 -28 -15.5 -46.5t-36.5 -18.5q-20 0 -36 17.5t-16 47.5q0 32 17.5 48t34.5 16z" />
    <glyph glyph-name="copyright" unicode="&#xa9;" horiz-adv-x="738" 
d="M547 382q-8 -35 -26 -60t-41.5 -41.5t-52 -24.5t-57.5 -8q-42 0 -77.5 14t-61 41t-40 66t-14.5 89q0 97 52 152.5t144 55.5q58 0 103.5 -27.5t63.5 -87.5l-58 -15q-11 28 -27.5 43t-33 22.5t-30.5 9t-20 1.5q-35 0 -59.5 -14t-39.5 -36.5t-22 -50t-7 -55.5
q0 -39 10 -67.5t26.5 -47t39 -27.5t47.5 -9q9 0 26.5 3t35.5 12.5t34.5 28t24.5 50.5zM369 828q76 0 143 -29t117.5 -79t79.5 -117t29 -144q0 -76 -29 -143t-79 -117.5t-117.5 -79.5t-143.5 -29t-143 29t-117.5 79.5t-79.5 117.5t-29 143q0 77 29 144.5t79.5 117.5
t117.5 78.5t143 28.5zM369 766q-63 0 -119 -24t-97.5 -65t-66 -97.5t-24.5 -120.5q0 -63 24 -119t65.5 -98t97.5 -66t120 -24t120 24t97.5 66t65.5 98t24 119q0 64 -24.5 120.5t-66 97.5t-97.5 65t-119 24z" />
    <glyph glyph-name="ordfeminine" unicode="&#xaa;" horiz-adv-x="219" 
d="M20 723q0 14 3.5 32t11 34.5t20 27.5t31.5 11q20 0 29.5 -8.5t15.5 -18.5h2v23h66v-402h-66v26h-2q-7 -14 -18.5 -22t-28.5 -8t-29 7.5t-20 20t-11.5 28t-3.5 31.5v218zM133 749q0 2 -6 11t-18 9q-14 0 -18.5 -13.5t-4.5 -21.5v-232q0 -12 5.5 -20t15.5 -8
q13 0 19.5 11.5t6.5 16.5v247z" />
    <glyph glyph-name="guillemotleft" unicode="&#xab;" horiz-adv-x="385" 
d="M350 692l-67 -322l67 -325h-85l-67 325l67 322h85zM186 692l-67 -322l67 -325h-85l-67 325l67 322h85z" />
    <glyph glyph-name="logicalnot" unicode="&#xac;" horiz-adv-x="667" 
d="M66 489v77h535v-307h-77v230h-458z" />
    <glyph glyph-name="uni00AD" unicode="&#xad;" horiz-adv-x="271" 
d="M244 370v-91h-218v91h218z" />
    <glyph glyph-name="registered" unicode="&#xae;" horiz-adv-x="738" 
d="M207 652h137q32 0 57.5 -2t49.5 -12q25 -10 43.5 -35.5t18.5 -58.5q0 -16 -6 -34.5t-19.5 -35t-35 -28t-52.5 -13.5v-2q9 -3 17.5 -7.5t19 -15t24 -28t31.5 -47.5l48 -78h-78l-35 63q-18 32 -31.5 52.5t-26 32.5t-27 16.5t-33.5 4.5h-38v-169h-64v397zM271 478h78
q11 0 27.5 1t31.5 6.5t26 18t11 35.5q0 22 -10.5 34t-25.5 17.5t-32.5 6.5t-32.5 1h-73v-120zM369 828q76 0 143 -29t117.5 -79t79.5 -117t29 -144q0 -76 -29 -143t-79 -117.5t-117.5 -79.5t-143.5 -29t-143 29t-117.5 79.5t-79.5 117.5t-29 143q0 77 29 144.5t79.5 117.5
t117.5 78.5t143 28.5zM369 766q-63 0 -119 -24t-97.5 -65t-66 -97.5t-24.5 -120.5q0 -63 24 -119t65.5 -98t97.5 -66t120 -24t120 24t97.5 66t65.5 98t24 119q0 64 -24.5 120.5t-66 97.5t-97.5 65t-119 24z" />
    <glyph glyph-name="macron" unicode="&#xaf;" horiz-adv-x="333" 
d="M262 808v-58h-191v58h191z" />
    <glyph glyph-name="degree" unicode="&#xb0;" horiz-adv-x="400" 
d="M117 678q0 -35 24 -58.5t58 -23.5t59 23.5t25 58.5t-24.5 59.5t-59.5 24.5q-34 0 -58 -24.5t-24 -59.5zM200 828q31 0 58 -12t47 -32t32 -47t12 -58t-12 -58t-32 -47.5t-47 -32t-58 -11.5t-58 11.5t-47.5 32t-32 47.5t-11.5 58t11.5 58t32 47t47.5 32t58 12z" />
    <glyph glyph-name="plusminus" unicode="&#xb1;" horiz-adv-x="667" 
d="M601 77v-77h-535v77h535zM295 471v229h77v-229h229v-77h-229v-229h-77v229h-229v77h229z" />
    <glyph glyph-name="uni00B2" unicode="&#xb2;" horiz-adv-x="250" 
d="M31 749q0 12 4 26t14 26t27.5 19.5t44.5 7.5q20 0 38 -3.5t31 -13t20.5 -26t7.5 -41.5q0 -22 -5.5 -41.5t-15.5 -39.5l-73 -151h90v-64h-186l103 215q7 15 14 34t7 48q0 23 -7 30.5t-19 7.5q-16 0 -22.5 -11t-6.5 -24v-43h-66v44z" />
    <glyph glyph-name="uni00B3" unicode="&#xb3;" horiz-adv-x="250" 
d="M32 745q0 13 4 28t14.5 27t27.5 20t44 8q31 0 50.5 -7t30 -19.5t14 -31.5t3.5 -43t-2 -38t-5.5 -22t-10 -12t-15.5 -8q21 -11 27 -23t6 -40q0 -31 -1.5 -57t-10.5 -44.5t-28 -29t-53 -10.5q-15 0 -32.5 2.5t-32 10.5t-24 24t-9.5 42v60h66v-56q0 -15 6.5 -26.5
t22.5 -11.5q11 0 17 5.5t9 14t3.5 18t0.5 17.5q0 22 -0.5 37.5t-4 25t-11 13.5t-21.5 4h-34v45h31q28 0 34 15.5t6 40.5q0 23 -3 41t-25 18q-18 0 -24.5 -13.5t-6.5 -25.5v-38h-63v39z" />
    <glyph glyph-name="acute" unicode="&#xb4;" horiz-adv-x="333" 
d="M255 859l-81 -157h-48l41 157h88z" />
    <glyph glyph-name="mu" unicode="&#xb5;" 
d="M138 -92h-106v742h106v-514q0 -5 1 -14t5 -18.5t12 -16.5t22 -7q25 0 31.5 19t6.5 40v511h106v-650h-92v43h-2q-3 -21 -9 -32t-13.5 -16t-15 -6t-12.5 -1q-8 0 -19.5 8.5t-18.5 34.5h-2v-123z" />
    <glyph glyph-name="paragraph" unicode="&#xb6;" horiz-adv-x="538" 
d="M481 747h-50v-837h-74v837h-48v-837h-74v511q-64 4 -102 27t-58.5 53.5t-27 61.5t-6.5 51q0 21 5 46t17.5 49t33 46t51.5 38q21 11 49.5 16.5t57.5 8t54.5 3t40.5 0.5h131v-74z" />
    <glyph glyph-name="periodcentered" unicode="&#xb7;" horiz-adv-x="198" 
d="M99 476q26 0 45 -19t19 -45t-19 -45t-45 -19t-45 19t-19 45t19 45t45 19z" />
    <glyph glyph-name="cedilla" unicode="&#xb8;" horiz-adv-x="333" 
d="M212 8q18 -11 31 -22.5t13 -33.5q0 -20 -11.5 -31.5t-26.5 -17.5t-30 -7.5t-23 -1.5q-3 0 -12.5 0.5t-21.5 1.5t-26 3t-27 5v39q6 0 14.5 -0.5t19.5 -0.5q4 0 10.5 0.5t13 2.5t11 6t4.5 12q0 14 -10.5 19t-15.5 7l20 19h67z" />
    <glyph glyph-name="uni00B9" unicode="&#xb9;" horiz-adv-x="250" 
d="M160 828h8v-385h-66v308l-51 -15v56z" />
    <glyph glyph-name="ordmasculine" unicode="&#xba;" horiz-adv-x="219" 
d="M21 728q0 39 22 69.5t66 30.5q24 0 41 -8.5t27.5 -23t15.5 -32.5t5 -36v-203q0 -18 -4.5 -36.5t-15 -34.5t-27 -26t-41.5 -10t-42 10t-27.5 26t-15 34.5t-4.5 36.5v203zM132 740q0 13 -6 21t-17 8q-12 0 -17 -10t-5 -19v-232q0 -10 4.5 -20.5t18.5 -10.5q15 0 18.5 12.5
t3.5 18.5v232z" />
    <glyph glyph-name="guillemotright" unicode="&#xbb;" horiz-adv-x="385" 
d="M35 45l67 322l-67 325h85l67 -325l-67 -322h-85zM199 45l67 322l-67 325h85l67 -325l-67 -322h-85z" />
    <glyph glyph-name="onequarter" unicode="&#xbc;" horiz-adv-x="542" 
d="M440 828h73l-397 -833h-73zM160 828h8v-385h-66v308l-51 -15v56zM490 380v-252h22v-64h-22v-69h-66v69h-105v70l104 246h67zM360 128h64v154z" />
    <glyph glyph-name="onehalf" unicode="&#xbd;" horiz-adv-x="542" 
d="M424 828h73l-397 -833h-73zM160 828h8v-385h-66v308l-51 -15v56zM323 301q0 12 4 26t14 26t27.5 19.5t44.5 7.5q20 0 38 -3.5t31 -13t20.5 -26t7.5 -41.5q0 -22 -5.5 -41.5t-15.5 -39.5l-73 -151h90v-64h-186l103 215q7 15 14 34t7 48q0 23 -7 30.5t-19 7.5
q-16 0 -22.5 -11t-6.5 -24v-43h-66v44z" />
    <glyph glyph-name="threequarters" unicode="&#xbe;" horiz-adv-x="542" 
d="M452 828h73l-397 -833h-73zM490 380v-252h22v-64h-22v-69h-66v69h-105v70l104 246h67zM360 128h64v154zM32 745q0 13 4 28t14.5 27t27.5 20t44 8q31 0 50.5 -7t30 -19.5t14 -31.5t3.5 -43t-2 -38t-5.5 -22t-10 -12t-15.5 -8q21 -11 27 -23t6 -40q0 -31 -1.5 -57
t-10.5 -44.5t-28 -29t-53 -10.5q-15 0 -32.5 2.5t-32 10.5t-24 24t-9.5 42v60h66v-56q0 -15 6.5 -26.5t22.5 -11.5q11 0 17 5.5t9 14t3.5 18t0.5 17.5q0 22 -0.5 37.5t-4 25t-11 13.5t-21.5 4h-34v45h31q28 0 34 15.5t6 40.5q0 23 -3 41t-25 18q-18 0 -24.5 -13.5
t-6.5 -25.5v-38h-63v39z" />
    <glyph glyph-name="questiondown" unicode="&#xbf;" horiz-adv-x="271" 
d="M150 436h24q8 -32 16 -71.5t8 -81.5q0 -15 -1.5 -34t-6.5 -43t-14.5 -55t-24.5 -70q-4 -9 -8 -21t-7.5 -24t-6 -23t-2.5 -20q0 -32 16.5 -49t37.5 -17q19 0 39.5 7.5t31.5 12.5v-110q-17 -5 -36 -9t-50 -4q-47 0 -76 15.5t-44.5 38t-20.5 48t-5 44.5q0 20 3.5 39.5
t11.5 43t21 53.5t32 72q13 30 24.5 63.5t19.5 65t13 58t5 43.5v28zM161 656q30 0 47.5 -19.5t17.5 -44.5q0 -26 -18.5 -45t-45.5 -19q-26 0 -45 19t-19 45q0 29 20 46.5t43 17.5z" />
    <glyph glyph-name="Agrave" unicode="&#xc0;" horiz-adv-x="385" 
d="M245 829l125 -829h-117l-11 108h-99l-12 -108h-119l129 829h104zM193 555h-2l-38 -347h77zM233 857h-48l-81 157h88z" />
    <glyph glyph-name="Aacute" unicode="&#xc1;" horiz-adv-x="385" 
d="M245 829l125 -829h-117l-11 108h-99l-12 -108h-119l129 829h104zM193 555h-2l-38 -347h77zM281 1014l-81 -157h-48l41 157h88z" />
    <glyph glyph-name="Acircumflex" unicode="&#xc2;" horiz-adv-x="385" 
d="M245 829l125 -829h-117l-11 108h-99l-12 -108h-119l129 829h104zM193 555h-2l-38 -347h77zM253 864l-61 74l-62 -74h-45l73 136h71l72 -136h-48z" />
    <glyph glyph-name="Atilde" unicode="&#xc3;" horiz-adv-x="385" 
d="M245 829l125 -829h-117l-11 108h-99l-12 -108h-119l129 829h104zM193 555h-2l-38 -347h77zM311 984q0 -30 -6 -49.5t-16 -30.5t-22 -15.5t-22 -4.5q-11 0 -26 4.5t-37 18.5q-7 5 -16 9.5t-17 4.5q-9 0 -14.5 -4t-8.5 -10t-4 -12t-1 -10h-46q0 7 1 23.5t7 33.5t18.5 29.5
t36.5 12.5q12 0 27 -5t38 -17q8 -5 18.5 -9.5t17.5 -4.5q10 0 15.5 4.5t8 10.5t3 12t0.5 9h45z" />
    <glyph glyph-name="Adieresis" unicode="&#xc4;" horiz-adv-x="385" 
d="M245 829l125 -829h-117l-11 108h-99l-12 -108h-119l129 829h104zM193 555h-2l-38 -347h77zM127 1001q22 0 37 -18.5t15 -45.5q0 -28 -15.5 -46.5t-36.5 -18.5q-20 0 -36 17.5t-16 47.5q0 32 17.5 48t34.5 16zM258 1001q22 0 37 -18.5t15 -45.5q0 -28 -15.5 -46.5
t-36.5 -18.5q-20 0 -36 17.5t-16 47.5q0 32 17.5 48t34.5 16z" />
    <glyph glyph-name="Aring" unicode="&#xc5;" horiz-adv-x="385" 
d="M245 829l125 -829h-117l-11 108h-99l-12 -108h-119l129 829h104zM193 555h-2l-38 -347h77zM193 988q-19 0 -32.5 -13.5t-13.5 -32.5t13.5 -32.5t32.5 -13.5t32.5 13.5t13.5 32.5t-13.5 32.5t-32.5 13.5zM193 1022q33 0 56.5 -23.5t23.5 -56.5t-23.5 -56.5t-56.5 -23.5
t-56.5 23.5t-23.5 56.5t23.5 56.5t56.5 23.5z" />
    <glyph glyph-name="AE" unicode="&#xc6;" horiz-adv-x="510" 
d="M486 821v-102h-128v-249h121v-102h-121v-266h133v-102h-253v178h-84l-24 -178h-118l142 821h332zM230 719l-60 -439h68v439h-8z" />
    <glyph glyph-name="Ccedilla" unicode="&#xc7;" horiz-adv-x="385" 
d="M86 -55q24 0 45 3t21 19q0 7 -3.5 10t-17.5 13l15 10q-19 6 -33 12t-25 17q-11 10 -21.5 23t-18.5 30t-13 39.5t-5 53.5v458q0 40 9.5 76t29 62.5t50.5 42t75 15.5q46 0 77 -16t49.5 -41t26.5 -55.5t8 -58.5v-80h-119v62q0 19 -0.5 34.5t-4.5 27t-12.5 18t-24.5 6.5
q-26 0 -34 -20t-8 -44v-509q0 -8 1 -18t5 -19t12 -15.5t22 -6.5q21 0 32.5 14t11.5 34v124h119v-104q0 -46 -14 -75.5t-33.5 -48t-39.5 -28t-32 -13.5q8 -5 19.5 -15.5t11.5 -30.5q0 -22 -13.5 -33.5t-31 -17t-34 -6.5t-22.5 -1q-17 0 -37 1.5t-43 6.5v44z" />
    <glyph glyph-name="Egrave" unicode="&#xc8;" horiz-adv-x="313" 
d="M284 821v-102h-138v-248h131v-102h-131v-267h143v-102h-263v821h258zM206 857h-48l-81 157h88z" />
    <glyph glyph-name="Eacute" unicode="&#xc9;" horiz-adv-x="313" 
d="M284 821v-102h-138v-248h131v-102h-131v-267h143v-102h-263v821h258zM250 1014l-81 -157h-48l41 157h88z" />
    <glyph glyph-name="Ecircumflex" unicode="&#xca;" horiz-adv-x="313" 
d="M284 821v-102h-138v-248h131v-102h-131v-267h143v-102h-263v821h258zM222 864l-61 74l-62 -74h-45l73 136h71l72 -136h-48z" />
    <glyph glyph-name="Edieresis" unicode="&#xcb;" horiz-adv-x="313" 
d="M284 821v-102h-138v-248h131v-102h-131v-267h143v-102h-263v821h258zM92 1001q22 0 37 -18.5t15 -45.5q0 -28 -15.5 -46.5t-36.5 -18.5q-20 0 -36 17.5t-16 47.5q0 32 17.5 48t34.5 16zM223 1001q22 0 37 -18.5t15 -45.5q0 -28 -15.5 -46.5t-36.5 -18.5q-20 0 -36 17.5
t-16 47.5q0 32 17.5 48t34.5 16z" />
    <glyph glyph-name="Igrave" unicode="&#xcc;" horiz-adv-x="198" 
d="M159 821v-821h-120v821h120zM144 857h-48l-81 157h88z" />
    <glyph glyph-name="Iacute" unicode="&#xcd;" horiz-adv-x="198" 
d="M159 821v-821h-120v821h120zM185 1014l-81 -157h-48l41 157h88z" />
    <glyph glyph-name="Icircumflex" unicode="&#xce;" horiz-adv-x="198" 
d="M159 821v-821h-120v821h120zM160 864l-61 74l-62 -74h-45l73 136h71l72 -136h-48z" />
    <glyph glyph-name="Idieresis" unicode="&#xcf;" horiz-adv-x="198" 
d="M159 821v-821h-120v821h120zM35 1001q22 0 37 -18.5t15 -45.5q0 -28 -15.5 -46.5t-36.5 -18.5q-20 0 -36 17.5t-16 47.5q0 32 17.5 48t34.5 16zM166 1001q22 0 37 -18.5t15 -45.5q0 -28 -15.5 -46.5t-36.5 -18.5q-20 0 -36 17.5t-16 47.5q0 32 17.5 48t34.5 16z" />
    <glyph glyph-name="Eth" unicode="&#xd0;" horiz-adv-x="385" 
d="M-8 360v100h37v361h159q79 0 122 -53.5t43 -148.5v-445q0 -33 -7.5 -64t-25.5 -55.5t-48 -39.5t-74 -15h-169v360h-37zM149 102h33q22 0 36.5 12.5t14.5 35.5v515q0 25 -12.5 39.5t-38.5 14.5h-33v-259h42v-100h-42v-258z" />
    <glyph glyph-name="Ntilde" unicode="&#xd1;" horiz-adv-x="385" 
d="M105 821q16 -45 30.5 -88t30.5 -93t35 -113t44 -149h2v443h111v-821h-80q-21 58 -37.5 108t-32.5 100t-32.5 105t-35.5 123h-2v-436h-111v821h78zM310 984q0 -30 -6 -49.5t-16 -30.5t-22 -15.5t-22 -4.5q-11 0 -26 4.5t-37 18.5q-7 5 -16 9.5t-17 4.5q-9 0 -14.5 -4
t-8.5 -10t-4 -12t-1 -10h-46q0 7 1 23.5t7 33.5t18.5 29.5t36.5 12.5q12 0 27 -5t38 -17q8 -5 18.5 -9.5t17.5 -4.5q10 0 15.5 4.5t8 10.5t3 12t0.5 9h45z" />
    <glyph glyph-name="Ograve" unicode="&#xd2;" horiz-adv-x="385" 
d="M354 183q0 -34 -8 -68t-27 -61t-50 -44t-77 -17q-47 0 -78.5 18.5t-50 49t-26 69t-7.5 78.5v413q0 27 6 62.5t23.5 68t49.5 54.5t85 22q40 0 70.5 -14.5t50 -40t29.5 -61t10 -77.5v-452zM234 675q0 23 -10.5 37t-32.5 14q-14 0 -22 -7t-12 -17t-5.5 -21.5t-1.5 -20.5
v-489q0 -32 7.5 -54t35.5 -22q23 0 32 18.5t9 44.5v517zM232 857h-48l-81 157h88z" />
    <glyph glyph-name="Oacute" unicode="&#xd3;" horiz-adv-x="385" 
d="M354 183q0 -34 -8 -68t-27 -61t-50 -44t-77 -17q-47 0 -78.5 18.5t-50 49t-26 69t-7.5 78.5v413q0 27 6 62.5t23.5 68t49.5 54.5t85 22q40 0 70.5 -14.5t50 -40t29.5 -61t10 -77.5v-452zM234 675q0 23 -10.5 37t-32.5 14q-14 0 -22 -7t-12 -17t-5.5 -21.5t-1.5 -20.5
v-489q0 -32 7.5 -54t35.5 -22q23 0 32 18.5t9 44.5v517zM281 1014l-81 -157h-48l41 157h88z" />
    <glyph glyph-name="Ocircumflex" unicode="&#xd4;" horiz-adv-x="385" 
d="M354 183q0 -34 -8 -68t-27 -61t-50 -44t-77 -17q-47 0 -78.5 18.5t-50 49t-26 69t-7.5 78.5v413q0 27 6 62.5t23.5 68t49.5 54.5t85 22q40 0 70.5 -14.5t50 -40t29.5 -61t10 -77.5v-452zM234 675q0 23 -10.5 37t-32.5 14q-14 0 -22 -7t-12 -17t-5.5 -21.5t-1.5 -20.5
v-489q0 -32 7.5 -54t35.5 -22q23 0 32 18.5t9 44.5v517zM252 864l-61 74l-62 -74h-45l73 136h71l72 -136h-48z" />
    <glyph glyph-name="Otilde" unicode="&#xd5;" horiz-adv-x="385" 
d="M354 183q0 -34 -8 -68t-27 -61t-50 -44t-77 -17q-47 0 -78.5 18.5t-50 49t-26 69t-7.5 78.5v413q0 27 6 62.5t23.5 68t49.5 54.5t85 22q40 0 70.5 -14.5t50 -40t29.5 -61t10 -77.5v-452zM234 675q0 23 -10.5 37t-32.5 14q-14 0 -22 -7t-12 -17t-5.5 -21.5t-1.5 -20.5
v-489q0 -32 7.5 -54t35.5 -22q23 0 32 18.5t9 44.5v517zM310 984q0 -30 -6 -49.5t-16 -30.5t-22 -15.5t-22 -4.5q-11 0 -26 4.5t-37 18.5q-7 5 -16 9.5t-17 4.5q-9 0 -14.5 -4t-8.5 -10t-4 -12t-1 -10h-46q0 7 1 23.5t7 33.5t18.5 29.5t36.5 12.5q12 0 27 -5t38 -17
q8 -5 18.5 -9.5t17.5 -4.5q10 0 15.5 4.5t8 10.5t3 12t0.5 9h45z" />
    <glyph glyph-name="Odieresis" unicode="&#xd6;" horiz-adv-x="385" 
d="M354 183q0 -34 -8 -68t-27 -61t-50 -44t-77 -17q-47 0 -78.5 18.5t-50 49t-26 69t-7.5 78.5v413q0 27 6 62.5t23.5 68t49.5 54.5t85 22q40 0 70.5 -14.5t50 -40t29.5 -61t10 -77.5v-452zM234 675q0 23 -10.5 37t-32.5 14q-14 0 -22 -7t-12 -17t-5.5 -21.5t-1.5 -20.5
v-489q0 -32 7.5 -54t35.5 -22q23 0 32 18.5t9 44.5v517zM127 1001q22 0 37 -18.5t15 -45.5q0 -28 -15.5 -46.5t-36.5 -18.5q-20 0 -36 17.5t-16 47.5q0 32 17.5 48t34.5 16zM258 1001q22 0 37 -18.5t15 -45.5q0 -28 -15.5 -46.5t-36.5 -18.5q-20 0 -36 17.5t-16 47.5
q0 32 17.5 48t34.5 16z" />
    <glyph glyph-name="multiply" unicode="&#xd7;" horiz-adv-x="667" 
d="M140 660l194 -194l193 194l55 -54l-193 -194l193 -193l-55 -54l-193 193l-194 -193l-54 54l194 193l-194 194z" />
    <glyph glyph-name="Oslash" unicode="&#xd8;" horiz-adv-x="385" 
d="M150 183q0 -46 8.5 -66.5t34.5 -20.5q23 0 32 18.5t9 44.5v294h-2l-82 -237v-33zM234 601v75q0 23 -10.5 37t-32.5 14q-14 0 -22 -7t-12 -17t-5.5 -21.5t-1.5 -20.5v-297h2zM72 -6h-50l31 89q-10 20 -16.5 53t-6.5 73v413q0 25 5.5 60.5t23 68t49.5 55.5t86 23
q45 0 67.5 -13t38.5 -27l14 40h49l-29 -87q6 -13 13 -38.5t7 -67.5v-452q0 -36 -8.5 -70.5t-28 -61t-50 -42.5t-75.5 -16q-23 0 -41.5 4.5t-31.5 11t-21.5 13.5t-11.5 11z" />
    <glyph glyph-name="Ugrave" unicode="&#xd9;" horiz-adv-x="385" 
d="M151 821v-673q0 -22 8 -36.5t31 -14.5q28 0 35.5 19.5t7.5 44.5v660h120v-641q0 -27 -7 -60t-25 -61t-48.5 -47t-77.5 -19q-44 0 -75 15.5t-50.5 40t-28.5 54.5t-9 59v659h119zM232 857h-48l-81 157h88z" />
    <glyph glyph-name="Uacute" unicode="&#xda;" horiz-adv-x="385" 
d="M151 821v-673q0 -22 8 -36.5t31 -14.5q28 0 35.5 19.5t7.5 44.5v660h120v-641q0 -27 -7 -60t-25 -61t-48.5 -47t-77.5 -19q-44 0 -75 15.5t-50.5 40t-28.5 54.5t-9 59v659h119zM281 1014l-81 -157h-48l41 157h88z" />
    <glyph glyph-name="Ucircumflex" unicode="&#xdb;" horiz-adv-x="385" 
d="M151 821v-673q0 -22 8 -36.5t31 -14.5q28 0 35.5 19.5t7.5 44.5v660h120v-641q0 -27 -7 -60t-25 -61t-48.5 -47t-77.5 -19q-44 0 -75 15.5t-50.5 40t-28.5 54.5t-9 59v659h119zM252 864l-61 74l-62 -74h-45l73 136h71l72 -136h-48z" />
    <glyph glyph-name="Udieresis" unicode="&#xdc;" horiz-adv-x="385" 
d="M151 821v-673q0 -22 8 -36.5t31 -14.5q28 0 35.5 19.5t7.5 44.5v660h120v-641q0 -27 -7 -60t-25 -61t-48.5 -47t-77.5 -19q-44 0 -75 15.5t-50.5 40t-28.5 54.5t-9 59v659h119zM127 1001q22 0 37 -18.5t15 -45.5q0 -28 -15.5 -46.5t-36.5 -18.5q-20 0 -36 17.5t-16 47.5
q0 32 17.5 48t34.5 16zM258 1001q22 0 37 -18.5t15 -45.5q0 -28 -15.5 -46.5t-36.5 -18.5q-20 0 -36 17.5t-16 47.5q0 32 17.5 48t34.5 16z" />
    <glyph glyph-name="Yacute" unicode="&#xdd;" 
d="M136 821l41 -324h2l40 324h117l-99 -425v-396h-120v392l-99 429h118zM266 1014l-81 -157h-48l41 157h88z" />
    <glyph glyph-name="Thorn" unicode="&#xde;" horiz-adv-x="385" 
d="M152 595v-367h27q31 0 41.5 20t10.5 46v239q0 33 -12.5 47.5t-43.5 14.5h-23zM178 697q88 0 130.5 -50.5t42.5 -132.5v-227q0 -29 -7.5 -57.5t-25 -51.5t-47 -37.5t-73.5 -14.5h-46v-126h-120v821h120v-124h26z" />
    <glyph glyph-name="germandbls" unicode="&#xdf;" 
d="M35 658q0 33 7 63.5t23.5 54.5t43.5 38.5t66 14.5q51 0 80.5 -24.5t44 -57.5t18.5 -67.5t4 -55.5q0 -42 -6.5 -70t-15.5 -46t-19 -28t-17 -16q18 -13 29.5 -29.5t17.5 -34t8 -33.5t2 -29v-182q0 -31 -7 -59t-22 -49.5t-38 -34.5t-55 -13h-23v100q13 0 18 1.5t10 9.5
q2 3 6 15.5t4 29.5v206q0 20 -8 34t-30 16v102q9 2 16.5 4.5t12.5 11.5t7.5 26.5t2.5 48.5q0 36 -1.5 60.5t-5 39.5t-10.5 21t-19 6q-20 0 -28 -17t-8 -37v-678h-108v658z" />
    <glyph glyph-name="agrave" unicode="&#xe0;" 
d="M30 484q0 22 4 51.5t15.5 56.5t32 45.5t53.5 18.5q17 0 29.5 -4.5t21 -11.5t14 -14.5t9.5 -14.5h2v39h106v-650h-106v42h-2q-14 -22 -34 -34.5t-43 -12.5q-45 0 -73.5 38t-28.5 111v340zM211 534q-6 8 -15 17t-23 9q-12 0 -19.5 -6.5t-11.5 -16.5t-5 -20.5t-1 -18.5v-363
q0 -16 7 -32t27 -16q7 0 14.5 4.5t13.5 11.5t9.5 14.5t3.5 12.5v404zM221 702h-48l-81 157h88z" />
    <glyph glyph-name="aacute" unicode="&#xe1;" 
d="M30 484q0 22 4 51.5t15.5 56.5t32 45.5t53.5 18.5q17 0 29.5 -4.5t21 -11.5t14 -14.5t9.5 -14.5h2v39h106v-650h-106v42h-2q-14 -22 -34 -34.5t-43 -12.5q-45 0 -73.5 38t-28.5 111v340zM211 534q-6 8 -15 17t-23 9q-12 0 -19.5 -6.5t-11.5 -16.5t-5 -20.5t-1 -18.5v-363
q0 -16 7 -32t27 -16q7 0 14.5 4.5t13.5 11.5t9.5 14.5t3.5 12.5v404zM266 859l-81 -157h-48l41 157h88z" />
    <glyph glyph-name="acircumflex" unicode="&#xe2;" 
d="M30 484q0 22 4 51.5t15.5 56.5t32 45.5t53.5 18.5q17 0 29.5 -4.5t21 -11.5t14 -14.5t9.5 -14.5h2v39h106v-650h-106v42h-2q-14 -22 -34 -34.5t-43 -12.5q-45 0 -73.5 38t-28.5 111v340zM211 534q-6 8 -15 17t-23 9q-12 0 -19.5 -6.5t-11.5 -16.5t-5 -20.5t-1 -18.5v-363
q0 -16 7 -32t27 -16q7 0 14.5 4.5t13.5 11.5t9.5 14.5t3.5 12.5v404zM242 709l-61 74l-62 -74h-45l73 136h71l72 -136h-48z" />
    <glyph glyph-name="atilde" unicode="&#xe3;" 
d="M30 484q0 22 4 51.5t15.5 56.5t32 45.5t53.5 18.5q17 0 29.5 -4.5t21 -11.5t14 -14.5t9.5 -14.5h2v39h106v-650h-106v42h-2q-14 -22 -34 -34.5t-43 -12.5q-45 0 -73.5 38t-28.5 111v340zM211 534q-6 8 -15 17t-23 9q-12 0 -19.5 -6.5t-11.5 -16.5t-5 -20.5t-1 -18.5v-363
q0 -16 7 -32t27 -16q7 0 14.5 4.5t13.5 11.5t9.5 14.5t3.5 12.5v404zM295 829q0 -30 -6 -49.5t-16 -30.5t-22 -15.5t-22 -4.5q-11 0 -26 4.5t-37 18.5q-7 5 -16 9.5t-17 4.5q-9 0 -14.5 -4t-8.5 -10t-4 -12t-1 -10h-46q0 7 1 23.5t7 33.5t18.5 29.5t36.5 12.5q12 0 27 -5
t38 -17q8 -5 18.5 -9.5t17.5 -4.5q10 0 15.5 4.5t8 10.5t3 12t0.5 9h45z" />
    <glyph glyph-name="adieresis" unicode="&#xe4;" 
d="M30 484q0 22 4 51.5t15.5 56.5t32 45.5t53.5 18.5q17 0 29.5 -4.5t21 -11.5t14 -14.5t9.5 -14.5h2v39h106v-650h-106v42h-2q-14 -22 -34 -34.5t-43 -12.5q-45 0 -73.5 38t-28.5 111v340zM211 534q-6 8 -15 17t-23 9q-12 0 -19.5 -6.5t-11.5 -16.5t-5 -20.5t-1 -18.5v-363
q0 -16 7 -32t27 -16q7 0 14.5 4.5t13.5 11.5t9.5 14.5t3.5 12.5v404zM112 846q22 0 37 -18.5t15 -45.5q0 -28 -15.5 -46.5t-36.5 -18.5q-20 0 -36 17.5t-16 47.5q0 32 17.5 48t34.5 16zM243 846q22 0 37 -18.5t15 -45.5q0 -28 -15.5 -46.5t-36.5 -18.5q-20 0 -36 17.5
t-16 47.5q0 32 17.5 48t34.5 16z" />
    <glyph glyph-name="aring" unicode="&#xe5;" 
d="M30 484q0 22 4 51.5t15.5 56.5t32 45.5t53.5 18.5q17 0 29.5 -4.5t21 -11.5t14 -14.5t9.5 -14.5h2v39h106v-650h-106v42h-2q-14 -22 -34 -34.5t-43 -12.5q-45 0 -73.5 38t-28.5 111v340zM211 534q-6 8 -15 17t-23 9q-12 0 -19.5 -6.5t-11.5 -16.5t-5 -20.5t-1 -18.5v-363
q0 -16 7 -32t27 -16q7 0 14.5 4.5t13.5 11.5t9.5 14.5t3.5 12.5v404zM178 833q-19 0 -32.5 -13.5t-13.5 -32.5t13.5 -32.5t32.5 -13.5t32.5 13.5t13.5 32.5t-13.5 32.5t-32.5 13.5zM178 867q33 0 56.5 -23.5t23.5 -56.5t-23.5 -56.5t-56.5 -23.5t-56.5 23.5t-23.5 56.5
t23.5 56.5t56.5 23.5z" />
    <glyph glyph-name="ae" unicode="&#xe6;" horiz-adv-x="510" 
d="M24 495q0 28 6 57t18 52t31.5 37.5t46.5 14.5q7 0 17.5 -2t21.5 -9t22 -20.5t21 -36.5h2v62h75v-79h2q5 14 11.5 29t16.5 27.5t25 20.5t36 8q29 0 48.5 -13.5t31.5 -34.5t17 -47t5 -51v-213h-173v-166q0 -13 7.5 -27.5t26.5 -14.5q17 0 24.5 14.5t7.5 32.5v68h107v-65
q0 -36 -10.5 -62.5t-29 -44.5t-43.5 -26.5t-53 -8.5q-25 0 -44 6t-34 16t-26 21.5t-21 23.5q-6 -11 -14.5 -23t-19.5 -22t-25 -16.5t-33 -6.5q-48 0 -74.5 41.5t-26.5 108.5v349zM198 512q0 17 -9 32.5t-27 15.5q-11 0 -17 -5.5t-9 -13t-4 -15.5t-1 -14v-371q0 -21 4.5 -37
t23.5 -16q18 0 28.5 12t10.5 20v392zM371 385v143q0 13 -7.5 25.5t-23.5 12.5q-11 0 -18 -7t-10.5 -17.5t-5 -21.5t-1.5 -20v-115h66z" />
    <glyph glyph-name="ccedilla" unicode="&#xe7;" 
d="M78 -55q10 -2 21.5 -3t24.5 -1q11 0 23 4t12 19q0 13 -9.5 17.5t-24.5 9.5l14 9q-14 4 -31.5 11.5t-33.5 25.5t-26.5 49.5t-10.5 83.5v302q0 24 4.5 56t19 60.5t41.5 48t73 19.5q62 0 102 -38.5t40 -118.5v-95h-108v102q0 8 -1 17.5t-4.5 17.5t-9.5 13.5t-16 5.5
q-11 0 -17 -5.5t-10 -14t-5 -18t-1 -16.5v-359q0 -6 1 -15.5t4.5 -18.5t9.5 -15t16 -6q9 0 15.5 5.5t10.5 13.5t5.5 17.5t1.5 18.5v99h108v-76q0 -47 -10 -77t-24 -48t-29 -27t-25 -13q13 -8 21.5 -19t8.5 -29q0 -20 -10 -32t-24.5 -18.5t-30.5 -9t-29 -2.5q-5 0 -15 0.5
t-22 2t-25 4t-25 6.5v37z" />
    <glyph glyph-name="egrave" unicode="&#xe8;" 
d="M319 128q0 -21 -7.5 -44t-24 -43t-43 -33t-64.5 -13q-39 0 -66.5 12.5t-45.5 33.5t-26 48t-8 56v361q0 28 8.5 55t26 48t44.5 34t64 13q61 0 101.5 -37.5t40.5 -107.5v-215h-179v-167q0 -23 12.5 -30.5t23.5 -7.5q20 0 28.5 14t8.5 37v62h106v-76zM213 384v134
q0 19 -9.5 30.5t-28.5 11.5t-27 -15t-8 -27v-134h73zM225 702h-48l-81 157h88z" />
    <glyph glyph-name="eacute" unicode="&#xe9;" 
d="M319 128q0 -21 -7.5 -44t-24 -43t-43 -33t-64.5 -13q-39 0 -66.5 12.5t-45.5 33.5t-26 48t-8 56v361q0 28 8.5 55t26 48t44.5 34t64 13q61 0 101.5 -37.5t40.5 -107.5v-215h-179v-167q0 -23 12.5 -30.5t23.5 -7.5q20 0 28.5 14t8.5 37v62h106v-76zM213 384v134
q0 19 -9.5 30.5t-28.5 11.5t-27 -15t-8 -27v-134h73zM262 859l-81 -157h-48l41 157h88z" />
    <glyph glyph-name="ecircumflex" unicode="&#xea;" 
d="M319 128q0 -21 -7.5 -44t-24 -43t-43 -33t-64.5 -13q-39 0 -66.5 12.5t-45.5 33.5t-26 48t-8 56v361q0 28 8.5 55t26 48t44.5 34t64 13q61 0 101.5 -37.5t40.5 -107.5v-215h-179v-167q0 -23 12.5 -30.5t23.5 -7.5q20 0 28.5 14t8.5 37v62h106v-76zM213 384v134
q0 19 -9.5 30.5t-28.5 11.5t-27 -15t-8 -27v-134h73zM235 709l-61 74l-62 -74h-45l73 136h71l72 -136h-48z" />
    <glyph glyph-name="edieresis" unicode="&#xeb;" 
d="M319 128q0 -21 -7.5 -44t-24 -43t-43 -33t-64.5 -13q-39 0 -66.5 12.5t-45.5 33.5t-26 48t-8 56v361q0 28 8.5 55t26 48t44.5 34t64 13q61 0 101.5 -37.5t40.5 -107.5v-215h-179v-167q0 -23 12.5 -30.5t23.5 -7.5q20 0 28.5 14t8.5 37v62h106v-76zM213 384v134
q0 19 -9.5 30.5t-28.5 11.5t-27 -15t-8 -27v-134h73zM112 846q22 0 37 -18.5t15 -45.5q0 -28 -15.5 -46.5t-36.5 -18.5q-20 0 -36 17.5t-16 47.5q0 32 17.5 48t34.5 16zM243 846q22 0 37 -18.5t15 -45.5q0 -28 -15.5 -46.5t-36.5 -18.5q-20 0 -36 17.5t-16 47.5
q0 32 17.5 48t34.5 16z" />
    <glyph glyph-name="igrave" unicode="&#xec;" horiz-adv-x="198" 
d="M152 650v-650h-106v650h106zM146 702h-48l-81 157h88z" />
    <glyph glyph-name="iacute" unicode="&#xed;" horiz-adv-x="198" 
d="M152 650v-650h-106v650h106zM183 859l-81 -157h-48l41 157h88z" />
    <glyph glyph-name="icircumflex" unicode="&#xee;" horiz-adv-x="198" 
d="M152 650v-650h-106v650h106zM160 709l-61 74l-62 -74h-45l73 136h71l72 -136h-48z" />
    <glyph glyph-name="idieresis" unicode="&#xef;" horiz-adv-x="198" 
d="M152 650v-650h-106v650h106zM35 846q22 0 37 -18.5t15 -45.5q0 -28 -15.5 -46.5t-36.5 -18.5q-20 0 -36 17.5t-16 47.5q0 32 17.5 48t34.5 16zM166 846q22 0 37 -18.5t15 -45.5q0 -28 -15.5 -46.5t-36.5 -18.5q-20 0 -36 17.5t-16 47.5q0 32 17.5 48t34.5 16z" />
    <glyph glyph-name="eth" unicode="&#xf0;" 
d="M270 828l21 -38l-56 -31q12 -16 26.5 -37t27.5 -50t21.5 -67.5t8.5 -89.5v-356q0 -33 -9 -62.5t-26.5 -52t-43.5 -35.5t-60 -13q-66 0 -105.5 45.5t-39.5 126.5v312q0 33 7.5 64t21.5 54.5t35 37.5t47 14q22 0 32.5 -6.5t18.5 -16.5l2 2q-3 14 -10.5 34.5t-29.5 53.5
l-103 -58l-20 37l96 54l-23 23l44 55q20 -11 29.5 -18.5t22.5 -19.5zM213 508q0 22 -9.5 37t-27.5 15q-21 0 -28 -18.5t-7 -37.5v-351q0 -23 7 -42t28 -19q12 0 19.5 6t11.5 14.5t5 17.5t1 15v363z" />
    <glyph glyph-name="ntilde" unicode="&#xf1;" 
d="M320 0h-106v511q0 7 -2.5 15.5t-7 16t-12 12.5t-16.5 5q-14 0 -25 -9t-11 -20v-531h-106v650h106v-32h2q16 23 36 30.5t34 7.5q44 0 76 -38t32 -117v-501zM295 829q0 -30 -6 -49.5t-16 -30.5t-22 -15.5t-22 -4.5q-11 0 -26 4.5t-37 18.5q-7 5 -16 9.5t-17 4.5
q-9 0 -14.5 -4t-8.5 -10t-4 -12t-1 -10h-46q0 7 1 23.5t7 33.5t18.5 29.5t36.5 12.5q12 0 27 -5t38 -17q8 -5 18.5 -9.5t17.5 -4.5q10 0 15.5 4.5t8 10.5t3 12t0.5 9h45z" />
    <glyph glyph-name="ograve" unicode="&#xf2;" 
d="M35 501q0 19 6.5 46t22.5 51t43 41t69 17t69.5 -16.5t44 -41.5t23 -55t6.5 -57v-318q0 -29 -6.5 -59.5t-23 -55.5t-43.5 -41.5t-67 -16.5q-41 0 -68.5 16t-44.5 41.5t-24 57t-7 63.5v328zM213 508q0 3 -1 11.5t-5 17.5t-11 16t-19 7q-11 0 -18 -5t-11 -13t-5.5 -17
t-1.5 -17v-362q0 -9 1.5 -18.5t5.5 -17.5t11 -13.5t19 -5.5q11 0 18 6t10.5 14.5t5 17t1.5 14.5v365zM224 702h-48l-81 157h88z" />
    <glyph glyph-name="oacute" unicode="&#xf3;" 
d="M35 501q0 19 6.5 46t22.5 51t43 41t69 17t69.5 -16.5t44 -41.5t23 -55t6.5 -57v-318q0 -29 -6.5 -59.5t-23 -55.5t-43.5 -41.5t-67 -16.5q-41 0 -68.5 16t-44.5 41.5t-24 57t-7 63.5v328zM213 508q0 3 -1 11.5t-5 17.5t-11 16t-19 7q-11 0 -18 -5t-11 -13t-5.5 -17
t-1.5 -17v-362q0 -9 1.5 -18.5t5.5 -17.5t11 -13.5t19 -5.5q11 0 18 6t10.5 14.5t5 17t1.5 14.5v365zM259 859l-81 -157h-48l41 157h88z" />
    <glyph glyph-name="ocircumflex" unicode="&#xf4;" 
d="M35 501q0 19 6.5 46t22.5 51t43 41t69 17t69.5 -16.5t44 -41.5t23 -55t6.5 -57v-318q0 -29 -6.5 -59.5t-23 -55.5t-43.5 -41.5t-67 -16.5q-41 0 -68.5 16t-44.5 41.5t-24 57t-7 63.5v328zM213 508q0 3 -1 11.5t-5 17.5t-11 16t-19 7q-11 0 -18 -5t-11 -13t-5.5 -17
t-1.5 -17v-362q0 -9 1.5 -18.5t5.5 -17.5t11 -13.5t19 -5.5q11 0 18 6t10.5 14.5t5 17t1.5 14.5v365zM237 709l-61 74l-62 -74h-45l73 136h71l72 -136h-48z" />
    <glyph glyph-name="otilde" unicode="&#xf5;" 
d="M35 501q0 19 6.5 46t22.5 51t43 41t69 17t69.5 -16.5t44 -41.5t23 -55t6.5 -57v-318q0 -29 -6.5 -59.5t-23 -55.5t-43.5 -41.5t-67 -16.5q-41 0 -68.5 16t-44.5 41.5t-24 57t-7 63.5v328zM213 508q0 3 -1 11.5t-5 17.5t-11 16t-19 7q-11 0 -18 -5t-11 -13t-5.5 -17
t-1.5 -17v-362q0 -9 1.5 -18.5t5.5 -17.5t11 -13.5t19 -5.5q11 0 18 6t10.5 14.5t5 17t1.5 14.5v365zM295 829q0 -30 -6 -49.5t-16 -30.5t-22 -15.5t-22 -4.5q-11 0 -26 4.5t-37 18.5q-7 5 -16 9.5t-17 4.5q-9 0 -14.5 -4t-8.5 -10t-4 -12t-1 -10h-46q0 7 1 23.5t7 33.5
t18.5 29.5t36.5 12.5q12 0 27 -5t38 -17q8 -5 18.5 -9.5t17.5 -4.5q10 0 15.5 4.5t8 10.5t3 12t0.5 9h45z" />
    <glyph glyph-name="odieresis" unicode="&#xf6;" 
d="M35 501q0 19 6.5 46t22.5 51t43 41t69 17t69.5 -16.5t44 -41.5t23 -55t6.5 -57v-318q0 -29 -6.5 -59.5t-23 -55.5t-43.5 -41.5t-67 -16.5q-41 0 -68.5 16t-44.5 41.5t-24 57t-7 63.5v328zM213 508q0 3 -1 11.5t-5 17.5t-11 16t-19 7q-11 0 -18 -5t-11 -13t-5.5 -17
t-1.5 -17v-362q0 -9 1.5 -18.5t5.5 -17.5t11 -13.5t19 -5.5q11 0 18 6t10.5 14.5t5 17t1.5 14.5v365zM112 846q22 0 37 -18.5t15 -45.5q0 -28 -15.5 -46.5t-36.5 -18.5q-20 0 -36 17.5t-16 47.5q0 32 17.5 48t34.5 16zM243 846q22 0 37 -18.5t15 -45.5q0 -28 -15.5 -46.5
t-36.5 -18.5q-20 0 -36 17.5t-16 47.5q0 32 17.5 48t34.5 16z" />
    <glyph glyph-name="divide" unicode="&#xf7;" horiz-adv-x="667" 
d="M333 665q20 0 34.5 -14t14.5 -34t-14.5 -34.5t-34.5 -14.5t-34 14.5t-14 34.5t14 34t34 14zM333 257q20 0 34.5 -14t14.5 -34t-14.5 -34.5t-34.5 -14.5t-34 14.5t-14 34.5t14 34t34 14zM601 451v-77h-535v77h535z" />
    <glyph glyph-name="oslash" unicode="&#xf8;" 
d="M141 147q0 -9 1.5 -18.5t5.5 -17.5t11 -13.5t19 -5.5q11 0 18 6t10.5 14.5t5 17t1.5 14.5v211h-2l-70 -186v-22zM56 75q-7 10 -14 36.5t-7 62.5v327q0 21 6.5 47.5t22.5 50.5t43.5 40.5t68.5 16.5q39 0 59.5 -11.5t34.5 -22.5l14 34h47l-31 -78q10 -26 14.5 -45t4.5 -47
v-317q0 -29 -6.5 -59.5t-22.5 -55.5t-43 -41.5t-68 -16.5q-34 0 -52.5 8.5t-40.5 23.5l-13 -32h-48zM213 476v32q0 3 -1 11.5t-5 17.5t-11 16t-19 7q-11 0 -18 -5t-11 -13t-5.5 -17t-1.5 -17v-217h2z" />
    <glyph glyph-name="ugrave" unicode="&#xf9;" 
d="M138 650v-507q0 -5 1 -14t5 -18.5t12 -16.5t22 -7q25 0 31.5 19t6.5 40v504h106v-493q0 -32 -7 -61.5t-23.5 -52t-44.5 -35.5t-70 -13q-40 0 -67.5 13t-45 35.5t-25 52.5t-7.5 64v490h106zM217 702h-48l-81 157h88z" />
    <glyph glyph-name="uacute" unicode="&#xfa;" 
d="M138 650v-507q0 -5 1 -14t5 -18.5t12 -16.5t22 -7q25 0 31.5 19t6.5 40v504h106v-493q0 -32 -7 -61.5t-23.5 -52t-44.5 -35.5t-70 -13q-40 0 -67.5 13t-45 35.5t-25 52.5t-7.5 64v490h106zM266 859l-81 -157h-48l41 157h88z" />
    <glyph glyph-name="ucircumflex" unicode="&#xfb;" 
d="M138 650v-507q0 -5 1 -14t5 -18.5t12 -16.5t22 -7q25 0 31.5 19t6.5 40v504h106v-493q0 -32 -7 -61.5t-23.5 -52t-44.5 -35.5t-70 -13q-40 0 -67.5 13t-45 35.5t-25 52.5t-7.5 64v490h106zM237 709l-61 74l-62 -74h-45l73 136h71l72 -136h-48z" />
    <glyph glyph-name="udieresis" unicode="&#xfc;" 
d="M138 650v-507q0 -5 1 -14t5 -18.5t12 -16.5t22 -7q25 0 31.5 19t6.5 40v504h106v-493q0 -32 -7 -61.5t-23.5 -52t-44.5 -35.5t-70 -13q-40 0 -67.5 13t-45 35.5t-25 52.5t-7.5 64v490h106zM112 846q22 0 37 -18.5t15 -45.5q0 -28 -15.5 -46.5t-36.5 -18.5q-20 0 -36 17.5
t-16 47.5q0 32 17.5 48t34.5 16zM243 846q22 0 37 -18.5t15 -45.5q0 -28 -15.5 -46.5t-36.5 -18.5q-20 0 -36 17.5t-16 47.5q0 32 17.5 48t34.5 16z" />
    <glyph glyph-name="yacute" unicode="&#xfd;" horiz-adv-x="313" 
d="M118 650l37 -419h2l30 419h105l-85 -556q-6 -39 -9.5 -62.5t-7 -38t-7 -23.5t-9.5 -19q-12 -22 -32.5 -32.5t-46.5 -10.5q-19 0 -29.5 3.5t-19.5 8.5v102q8 -6 17 -11.5t18 -5.5q13 0 23.5 18t7.5 40l-99 587h105zM246 859l-81 -157h-48l41 157h88z" />
    <glyph glyph-name="thorn" unicode="&#xfe;" 
d="M140 611h2q8 14 23.5 29.5t46.5 15.5q22 0 41 -11t33.5 -33t23 -56.5t8.5 -80.5v-331q0 -32 -7 -59t-20 -46.5t-32 -31t-43 -11.5q-26 0 -41 12t-35 34v-134h-106v913h106v-210zM212 512q0 5 -2 13t-6 16t-11.5 13.5t-17.5 5.5q-12 0 -22 -8.5t-10 -11.5l-2 -4h-1v-407
q0 -3 2.5 -10.5t7.5 -14.5t12 -12.5t17 -5.5q12 0 18.5 5t10 12t4 14.5t0.5 11.5v383z" />
    <glyph glyph-name="ydieresis" unicode="&#xff;" horiz-adv-x="313" 
d="M118 650l37 -419h2l30 419h105l-85 -556q-6 -39 -9.5 -62.5t-7 -38t-7 -23.5t-9.5 -19q-12 -22 -32.5 -32.5t-46.5 -10.5q-19 0 -29.5 3.5t-19.5 8.5v102q8 -6 17 -11.5t18 -5.5q13 0 23.5 18t7.5 40l-99 587h105zM88 846q22 0 37 -18.5t15 -45.5q0 -28 -15.5 -46.5
t-36.5 -18.5q-20 0 -36 17.5t-16 47.5q0 32 17.5 48t34.5 16zM219 846q22 0 37 -18.5t15 -45.5q0 -28 -15.5 -46.5t-36.5 -18.5q-20 0 -36 17.5t-16 47.5q0 32 17.5 48t34.5 16z" />
    <glyph glyph-name="dotlessi" unicode="&#x131;" horiz-adv-x="198" 
d="M152 650v-650h-106v650h106z" />
    <glyph glyph-name="OE" unicode="&#x152;" horiz-adv-x="510" 
d="M214 0q-94 0 -138.5 52.5t-44.5 149.5v400q0 81 20 125t55 66q44 28 91 28h289v-102h-125v-248h119v-102h-119v-267h125v-102h-272zM241 654q0 10 -1.5 21t-6.5 21t-13.5 16.5t-21.5 6.5q-16 0 -25.5 -7.5t-14 -18.5t-6 -24t-1.5 -23v-477q0 -10 2 -21.5t6.5 -21t13 -16
t21.5 -6.5q16 0 25.5 8.5t14 21.5t6 26.5t1.5 24.5v469z" />
    <glyph glyph-name="oe" unicode="&#x153;" horiz-adv-x="510" 
d="M481 297h-173v-171q0 -3 2 -9t5.5 -12t9.5 -10.5t15 -4.5q18 0 26 15t8 34v66h107v-73q0 -28 -8 -52.5t-24.5 -43t-42 -29.5t-59.5 -11q-37 0 -59.5 11t-35.5 19q-20 -14 -45 -22t-45 -8q-32 0 -61 15.5t-49 46.5q-8 12 -13.5 31t-9.5 49t-5.5 72.5t-1.5 101.5
q0 121 7 188.5t26 96.5q18 28 45.5 43.5t64.5 15.5q31 0 53 -10t38 -20q21 17 46 23.5t43 6.5q33 0 58.5 -12.5t43 -33t26 -46t8.5 -50.5v-217zM202 504q0 7 -1 16.5t-4.5 18.5t-10.5 15t-19 6t-19 -8t-10 -19t-3.5 -23t-0.5 -21v-346q0 -8 1 -17t4.5 -17t9.5 -13.5t17 -5.5
q10 0 17 5t11 12t6 15.5t2 15.5v366zM374 385v133q0 14 -7.5 28t-24.5 14q-11 0 -18 -7t-10.5 -16t-4.5 -18.5t-1 -15.5v-118h66z" />
    <glyph glyph-name="Scaron" unicode="&#x160;" 
d="M140 136q0 -12 6.5 -26.5t28.5 -14.5q14 0 22 6.5t11.5 16.5t4.5 22t1 24q0 41 -1 67.5t-7.5 47.5t-20.5 42t-40 51q-28 32 -50.5 60.5t-38.5 58.5t-25 65.5t-9 82.5q0 21 4 53t19 62t45.5 52t83.5 22q78 0 116.5 -44t38.5 -114v-89h-119v101q0 19 -8.5 31.5t-26.5 12.5
q-12 0 -19.5 -6t-11.5 -15.5t-5 -21.5t-1 -23q0 -37 6 -64.5t19.5 -52.5t35 -51t52.5 -61q18 -21 33 -42t26.5 -48t17.5 -61t6 -80v-26q0 -22 -5.5 -53t-23 -59.5t-49 -48.5t-83.5 -20q-80 0 -116 46t-36 122v82h119v-107zM113 1002l61 -74l62 74h45l-73 -136h-71l-72 136
h48z" />
    <glyph glyph-name="scaron" unicode="&#x161;" horiz-adv-x="313" 
d="M115 168q0 -33 6 -54t28 -21q17 0 26 16t9 52q0 30 -4.5 50.5t-14.5 38t-26 35.5t-40 42q-8 8 -20.5 22.5t-24.5 35.5t-21 48t-9 61q0 24 7 52.5t22.5 53t41.5 40.5t64 16q49 0 75.5 -21t38.5 -49.5t14 -58t2 -46.5v-33h-89v45q0 25 -7 45t-27 20q-12 0 -19 -7t-11 -16.5
t-5 -20t-1 -16.5q0 -18 3 -31.5t10.5 -26t20 -26t30.5 -31.5q15 -15 32 -35t31.5 -46t23.5 -59t9 -75q0 -20 -4.5 -49t-19 -57t-42.5 -47.5t-75 -19.5q-35 0 -59 12t-39 33.5t-21.5 51.5t-6.5 66v50h92v-40zM93 847l61 -74l62 74h45l-73 -136h-71l-72 136h48z" />
    <glyph glyph-name="Ydieresis" unicode="&#x178;" 
d="M136 821l41 -324h2l40 324h117l-99 -425v-396h-120v392l-99 429h118zM112 1001q22 0 37 -18.5t15 -45.5q0 -28 -15.5 -46.5t-36.5 -18.5q-20 0 -36 17.5t-16 47.5q0 32 17.5 48t34.5 16zM243 1001q22 0 37 -18.5t15 -45.5q0 -28 -15.5 -46.5t-36.5 -18.5q-20 0 -36 17.5
t-16 47.5q0 32 17.5 48t34.5 16z" />
    <glyph glyph-name="Zcaron" unicode="&#x17d;" horiz-adv-x="271" 
d="M256 821l-111 -719h111v-102h-242l112 719h-108v102h238zM83 1002l61 -74l62 74h45l-73 -136h-71l-72 136h48z" />
    <glyph glyph-name="zcaron" unicode="&#x17e;" horiz-adv-x="229" 
d="M214 650l-86 -574h86v-76h-200l86 570h-80v80h194zM57 847l61 -74l62 74h45l-73 -136h-71l-72 136h48z" />
    <glyph glyph-name="florin" unicode="&#x192;" horiz-adv-x="340" 
d="M179 69q-10 -57 -29 -89.5t-43.5 -48t-52 -19t-54.5 -3.5l17 99q45 6 53 52l88 498h-24l16 93h24l5 19q10 40 22 69.5t30 48.5t44 28.5t65 11.5l-17 -97q-29 -5 -40.5 -22t-12.5 -30l-4 -28h39l-17 -93h-22z" />
    <glyph glyph-name="circumflex" unicode="&#x2c6;" horiz-adv-x="333" 
d="M231 709l-61 74l-62 -74h-45l73 136h71l72 -136h-48z" />
    <glyph glyph-name="caron" unicode="&#x2c7;" horiz-adv-x="333" 
d="M102 847l61 -74l62 74h45l-73 -136h-71l-72 136h48z" />
    <glyph glyph-name="ring" unicode="&#x2da;" horiz-adv-x="333" 
d="M167 833q-19 0 -32.5 -13.5t-13.5 -32.5t13.5 -32.5t32.5 -13.5t32.5 13.5t13.5 32.5t-13.5 32.5t-32.5 13.5zM167 867q33 0 56.5 -23.5t23.5 -56.5t-23.5 -56.5t-56.5 -23.5t-56.5 23.5t-23.5 56.5t23.5 56.5t56.5 23.5z" />
    <glyph glyph-name="tilde" unicode="&#x2dc;" horiz-adv-x="333" 
d="M284 829q0 -30 -6 -49.5t-16 -30.5t-22 -15.5t-22 -4.5q-11 0 -26 4.5t-37 18.5q-7 5 -16 9.5t-17 4.5q-9 0 -14.5 -4t-8.5 -10t-4 -12t-1 -10h-46q0 7 1 23.5t7 33.5t18.5 29.5t36.5 12.5q12 0 27 -5t38 -17q8 -5 18.5 -9.5t17.5 -4.5q10 0 15.5 4.5t8 10.5t3 12t0.5 9
h45z" />
    <glyph glyph-name="endash" unicode="&#x2013;" horiz-adv-x="500" 
d="M506 285v-63h-512v63h512z" />
    <glyph glyph-name="emdash" unicode="&#x2014;" horiz-adv-x="1000" 
d="M1006 285v-63h-1012v63h1012z" />
    <glyph glyph-name="quoteleft" unicode="&#x2018;" horiz-adv-x="198" 
d="M162 801q-30 -21 -40.5 -36t-10.5 -24q0 -6 5.5 -11t12.5 -10q24 -16 30 -30.5t6 -25.5q0 -24 -18 -44.5t-47 -20.5q-18 0 -31.5 8t-22.5 20.5t-14 28t-5 30.5q0 8 2.5 23.5t14.5 35t36 39.5t67 37z" />
    <glyph glyph-name="quoteright" unicode="&#x2019;" horiz-adv-x="198" 
d="M36 625q30 21 40.5 36t10.5 24q0 6 -5.5 11t-12.5 10q-24 16 -30 30.5t-6 25.5q0 24 18 44.5t47 20.5q18 0 31.5 -8t22.5 -20.5t14 -28t5 -30.5q0 -8 -2.5 -23.5t-14.5 -35t-36 -39.5t-67 -37z" />
    <glyph glyph-name="quotesinglbase" unicode="&#x201a;" horiz-adv-x="198" 
d="M37 -71q22 11 31 25t13 46q-31 11 -40.5 30t-9.5 31q0 10 4 21t11.5 20.5t19.5 15.5t27 6q26 0 46 -20t20 -62q0 -36 -13.5 -60t-32 -39.5t-37 -23.5t-28.5 -11z" />
    <glyph glyph-name="quotedblleft" unicode="&#x201c;" horiz-adv-x="385" 
d="M357 801q-30 -21 -40.5 -36t-10.5 -24q0 -6 5.5 -11t12.5 -10q24 -16 30 -30.5t6 -25.5q0 -24 -18 -44.5t-47 -20.5q-18 0 -31.5 8t-22.5 20.5t-14 28t-5 30.5q0 8 2.5 23.5t14.5 35t36 39.5t67 37zM162 801q-30 -21 -40.5 -36t-10.5 -24q0 -6 5.5 -11t12.5 -10
q24 -16 30 -30.5t6 -25.5q0 -24 -18 -44.5t-47 -20.5q-18 0 -31.5 8t-22.5 20.5t-14 28t-5 30.5q0 8 2.5 23.5t14.5 35t36 39.5t67 37z" />
    <glyph glyph-name="quotedblright" unicode="&#x201d;" horiz-adv-x="385" 
d="M28 625q30 21 40.5 36t10.5 24q0 6 -5.5 11t-12.5 10q-24 16 -30 30.5t-6 25.5q0 24 18 44.5t47 20.5q18 0 31.5 -8t22.5 -20.5t14 -28t5 -30.5q0 -8 -2.5 -23.5t-14.5 -35t-36 -39.5t-67 -37zM223 625q30 21 40.5 36t10.5 24q0 6 -5.5 11t-12.5 10q-24 16 -30 30.5
t-6 25.5q0 24 18 44.5t47 20.5q18 0 31.5 -8t22.5 -20.5t14 -28t5 -30.5q0 -8 -2.5 -23.5t-14.5 -35t-36 -39.5t-67 -37z" />
    <glyph glyph-name="quotedblbase" unicode="&#x201e;" horiz-adv-x="385" 
d="M36 -71q22 11 31 25t13 46q-31 11 -40.5 30t-9.5 31q0 10 4 21t11.5 20.5t19.5 15.5t27 6q26 0 46 -20t20 -62q0 -36 -13.5 -60t-32 -39.5t-37 -23.5t-28.5 -11zM229 -71q22 11 31 25t13 46q-31 11 -40.5 30t-9.5 31q0 10 4 21t11.5 20.5t19.5 15.5t27 6q26 0 46 -20
t20 -62q0 -36 -13.5 -60t-32 -39.5t-37 -23.5t-28.5 -11z" />
    <glyph glyph-name="dagger" unicode="&#x2020;" horiz-adv-x="385" 
d="M174 585q-10 30 -17.5 53.5t-12 42t-6.5 34.5t-2 32q0 15 2.5 30t8.5 26.5t17 18.5t29 7t29 -7t17 -18t8.5 -23.5t2.5 -24.5q0 -24 -4.5 -51.5t-13.5 -56.5q-1 -4 -4 -13t-6.5 -19t-6.5 -19l-4 -12q48 17 70 23t37 6q6 0 14.5 -2t16 -7t12.5 -15t5 -25q0 -25 -14 -36.5
t-37 -11.5q-8 0 -14.5 0.5t-17 3.5t-27.5 9t-45 17q10 -81 18 -147t13.5 -125.5t8.5 -116.5t3 -118q0 -23 -1.5 -46t-7.5 -41.5t-19 -30.5t-35 -12q-33 0 -47.5 29.5t-14.5 95.5q0 55 4 118t10.5 129.5t14.5 133.5t16 131q-3 -1 -11.5 -4t-17.5 -7t-17 -7t-11 -4
q-12 -3 -24.5 -5.5t-25.5 -2.5q-23 0 -35.5 13t-12.5 35q0 29 15.5 39t32.5 10q26 0 56.5 -10.5t50.5 -18.5z" />
    <glyph glyph-name="daggerdbl" unicode="&#x2021;" horiz-adv-x="385" 
d="M172 585q-1 5 -4.5 16.5t-7.5 24t-7.5 23.5t-4.5 16q-4 12 -9 35t-5 49q0 43 17.5 61.5t41.5 18.5q18 0 29 -8t17.5 -20t9 -26t2.5 -26q0 -13 -1 -24t-5.5 -27.5t-12.5 -43t-21 -69.5q4 1 15 4.5t23 7.5l22.5 7.5t14.5 4.5q4 2 14 3.5t21 1.5q23 0 35.5 -15.5t12.5 -35.5
q0 -15 -6 -24.5t-14.5 -14t-17 -6t-14.5 -1.5q-11 0 -19 1t-18.5 4t-26.5 9t-42 16q2 -12 6.5 -36t8.5 -50.5t7 -51t3 -38.5q0 -27 -7 -71t-18 -109q28 10 44.5 16t27 9t16.5 4t14 1q25 0 40 -12.5t15 -37.5q0 -14 -5.5 -23.5t-13 -14.5t-16 -7t-15.5 -2q-17 0 -40.5 6.5
t-66.5 22.5q1 -5 5 -16t8 -23t7.5 -23t4.5 -15q9 -34 12 -54t3 -31t-2 -25.5t-8.5 -27.5t-18 -21.5t-30.5 -8.5q-29 0 -43.5 23t-14.5 52q0 25 5.5 48.5t7.5 32.5q1 5 5 18t8 27t7.5 26.5t4.5 17.5q-10 -5 -23.5 -10t-28.5 -9.5t-29.5 -7t-26.5 -2.5q-16 0 -32 11t-16 37
q0 15 5.5 24.5t13.5 15t16.5 7.5t14.5 2q12 0 26.5 -3.5t29.5 -8t28.5 -10t21.5 -8.5q-11 57 -17.5 98.5t-6.5 69.5q0 13 2 34t5.5 46.5t8 53.5t8.5 54q-29 -10 -46.5 -16t-28 -9t-16.5 -4t-12 -1q-20 0 -36.5 13t-16.5 37q0 14 5.5 23t13.5 14.5t17 7.5t16 2t20 -2t38 -11
q3 -1 9.5 -3t14 -5t13.5 -5z" />
    <glyph glyph-name="bullet" unicode="&#x2022;" horiz-adv-x="350" 
d="M175 465q24 0 45 -9t36.5 -24.5t24.5 -36.5t9 -45t-9 -45t-24.5 -36.5t-36.5 -24.5t-45 -9t-45 9t-36.5 24.5t-24.5 36.5t-9 45t9 45t24.5 36.5t36.5 24.5t45 9z" />
    <glyph glyph-name="ellipsis" unicode="&#x2026;" horiz-adv-x="542" 
d="M453 124q29 0 46.5 -19.5t17.5 -42.5q0 -26 -18.5 -44t-44.5 -18t-44.5 18t-18.5 44q0 28 19.5 45t42.5 17zM87 124q29 0 46.5 -19.5t17.5 -42.5q0 -26 -18.5 -44t-44.5 -18t-44.5 18t-18.5 44q0 28 19.5 45t42.5 17zM270 124q29 0 46.5 -19.5t17.5 -42.5
q0 -26 -18.5 -44t-44.5 -18t-44.5 18t-18.5 44q0 27 19.5 44.5t42.5 17.5z" />
    <glyph glyph-name="perthousand" unicode="&#x2030;" horiz-adv-x="786" 
d="M439 241q0 15 -0.5 28.5t-3.5 24t-9 16.5t-17 6t-17 -7t-8.5 -17.5t-3 -22.5t-0.5 -21v-127q0 -25 5 -44.5t25 -19.5t24.5 18t4.5 38v128zM314 257q0 19 3.5 40.5t13.5 39.5t28.5 29.5t48.5 11.5q27 0 46 -10t30 -26.5t16 -38.5t5 -46v-154q0 -17 -4.5 -36t-15 -35
t-29 -26.5t-45.5 -10.5q-29 0 -47.5 10.5t-29.5 28t-15.5 40.5t-4.5 49v134zM35 707q0 19 3.5 40.5t13.5 39.5t28.5 29.5t48.5 11.5q27 0 46 -10t30 -26.5t16 -38.5t5 -46v-154q0 -17 -4.5 -36t-15 -35t-29 -26.5t-45.5 -10.5q-29 0 -47.5 10.5t-29.5 28t-15.5 40.5t-4.5 49
v134zM160 698q0 29 -4 48.5t-26 19.5q-11 0 -17 -7t-8.5 -17.5t-3 -22.5t-0.5 -21v-131q0 -25 5 -42.5t25 -17.5t24.5 18t4.5 38v135zM476 828l-344 -833h-75l344 833h75zM685 241q0 15 -0.5 28.5t-3.5 24t-9 16.5t-17 6t-17 -7t-8.5 -17.5t-3 -22.5t-0.5 -21v-127
q0 -25 5 -44.5t25 -19.5t24.5 18t4.5 38v128zM560 257q0 19 3.5 40.5t13.5 39.5t28.5 29.5t48.5 11.5q27 0 46 -10t30 -26.5t16 -38.5t5 -46v-154q0 -17 -4.5 -36t-15 -35t-29 -26.5t-45.5 -10.5q-29 0 -47.5 10.5t-29.5 28t-15.5 40.5t-4.5 49v134z" />
    <glyph glyph-name="guilsinglleft" unicode="&#x2039;" horiz-adv-x="198" 
d="M175 692l-67 -322l67 -325h-85l-67 325l67 322h85z" />
    <glyph glyph-name="guilsinglright" unicode="&#x203a;" horiz-adv-x="198" 
d="M23 45l67 322l-67 325h85l67 -325l-67 -322h-85z" />
    <glyph glyph-name="Euro" unicode="&#x20ac;" 
d="M1 530h30v142q0 75 37.5 115.5t107.5 40.5q77 0 112 -43.5t35 -118.5v-49h-106v72q0 17 -10 31.5t-29 14.5q-11 0 -19 -4.5t-13 -11.5t-7 -15t-2 -15v-159h86v-90h-86v-55h73v-90h-73v-161q0 -14 8.5 -30t31.5 -16q24 0 32 17t8 32v89h107l-1 -78q0 -28 -7 -55.5t-23 -49
t-44 -35t-70 -13.5q-75 0 -111.5 42t-36.5 117v141h-30v90h30v55h-30v90z" />
    <glyph glyph-name="trademark" unicode="&#x2122;" horiz-adv-x="758" 
d="M448 821l68 -272h2l72 272h116v-398h-71v318h-2l-83 -318h-64l-82 318h-2v-318h-70v398h116zM298 821v-62h-110v-336h-70v336h-110v62h290z" />
    </font>
</defs>
</svg>
